<?xml version="1.0" encoding="UTF-8"?>
<svg version="1.1" xmlns="http://www.w3.org/2000/svg" width="624" height="316">
<path d="M0 0 C205.92 0 411.84 0 624 0 C624 104.28 624 208.56 624 316 C418.08 316 212.16 316 0 316 C0 211.72 0 107.44 0 0 Z " fill="#FDFDFD" transform="translate(0,0)"/>
<path d="M0 0 C0.78460602 -0.0049649 1.56921204 -0.00992981 2.37759399 -0.01504517 C4.95909521 -0.02958359 7.54053497 -0.03645507 10.12207031 -0.04199219 C11.00875648 -0.04481956 11.89544266 -0.04764694 12.80899811 -0.05056 C17.50190018 -0.06551953 22.19477177 -0.07476924 26.88769531 -0.07910156 C31.71369989 -0.08457943 36.53942139 -0.10860232 41.36533737 -0.13707352 C45.09560946 -0.15577887 48.82581444 -0.1609097 52.55612946 -0.16243744 C54.33417558 -0.165447 56.11222101 -0.17341758 57.89022064 -0.18662262 C73.13406329 -0.29175195 85.67481839 1.37118171 97.45019531 12.09863281 C105.07661523 20.24422217 110.63491304 30.50305549 116.28710938 40.06176758 C119.60310618 45.64738945 123.07613615 51.12621643 126.57519531 56.59863281 C133.57326559 67.54614696 140.47528843 78.55111975 147.33789062 89.58398438 C148.73343936 91.81466464 150.14425228 94.03393868 151.56738281 96.24707031 C159.37657272 108.51865446 162.3972978 120.03911675 159.21191406 134.51660156 C156.06887034 143.53427974 150.70706766 151.53878392 145.60693359 159.55078125 C143.82940194 162.35145446 142.07346227 165.1648419 140.32128906 167.98144531 C133.58928574 178.80014609 126.81884027 189.59514509 119.98925781 200.35253906 C117.77324892 203.84622701 115.58749554 207.35746469 113.41113281 210.87597656 C94.80425102 240.80791989 94.80425102 240.80791989 76.95019531 245.16113281 C72.10768169 245.96225386 67.45890333 246.29158855 62.55297852 246.30639648 C61.49771217 246.3114344 61.49771217 246.3114344 60.42112732 246.3165741 C58.11439201 246.3260077 55.80772992 246.3280236 53.50097656 246.32910156 C51.8806302 246.33232025 50.26028413 246.33568477 48.63993835 246.33918762 C45.24831469 246.34516055 41.85671644 246.3470295 38.46508789 246.34643555 C34.14942116 246.34633422 29.83392004 246.35996384 25.51829243 246.37720776 C22.17139459 246.38840699 18.82453573 246.39035231 15.47762108 246.38982582 C13.88824075 246.3909949 12.29885905 246.39535538 10.70949745 246.40315819 C-16.94810684 246.52619602 -33.93183362 238.01135032 -53.4921875 218.95288086 C-58.87870137 213.6136554 -63.94813871 208.1405367 -68.65527344 202.18457031 C-70.50505856 199.84895256 -72.37944564 197.54954037 -74.28808594 195.26269531 C-82.19619676 185.78414064 -89.74025254 176.1066922 -97.04980469 166.16113281 C-98.1955056 164.60634772 -99.34134364 163.05166368 -100.48730469 161.49707031 C-102.27218278 159.07480597 -104.05644619 156.65210044 -105.83886719 154.22802734 C-110.02965742 148.53146034 -114.25776449 142.86447037 -118.51513672 137.2175293 C-121.17820443 133.67892646 -123.81361418 130.12283966 -126.41699219 126.54003906 C-136.77791757 112.2953994 -147.62874332 98.5974451 -159.67089844 85.73144531 C-161.70850147 83.52989721 -163.63569052 81.28143004 -165.54980469 78.97363281 C-169.82768716 74.05253651 -174.89381178 70.12122181 -180.04980469 66.16113281 C-181.25636719 65.23107422 -181.25636719 65.23107422 -182.48730469 64.28222656 C-195.03660493 55.05601405 -209.19560443 47.94510877 -225.04980469 49.16113281 C-225.82710938 49.21914062 -226.60441406 49.27714844 -227.40527344 49.33691406 C-253.46108403 52.95941369 -275.77105985 78.33029969 -290.79980469 97.78613281 C-291.35531006 98.5030127 -291.91081543 99.21989258 -292.4831543 99.95849609 C-295.71845211 104.20271338 -298.5111184 108.46579555 -301.04980469 113.16113281 C-304.6389303 109.6869614 -307.84970868 106.11338735 -310.92480469 102.16113281 C-311.72660156 101.15050781 -312.52839844 100.13988281 -313.35449219 99.09863281 C-315.04980469 96.16113281 -315.04980469 96.16113281 -315.06542969 93.58691406 C-313.80282739 90.57123704 -312.18000241 88.71467924 -309.92480469 86.34863281 C-307.14165921 83.39695776 -304.40354613 80.43099456 -301.75292969 77.36035156 C-282.99600037 55.83969567 -257.05379276 31.41784303 -227.04980469 29.16113281 C-226.24414062 29.08378906 -225.43847656 29.00644531 -224.60839844 28.92675781 C-199.27447413 27.62943025 -177.29910868 41.03914714 -159.17480469 57.34863281 C-157.11443869 59.2669163 -155.07995316 61.2109505 -153.04980469 63.16113281 C-152.48471191 63.69899414 -151.91961914 64.23685547 -151.33740234 64.79101562 C-143.28365626 72.49111751 -136.12730406 80.4961706 -129.41503906 89.38134766 C-127.54867849 91.81442502 -125.61201032 94.18711249 -123.67578125 96.56469727 C-117.62576972 104.00715615 -111.97428502 111.69222481 -106.39746094 119.49316406 C-103.01251389 124.227321 -99.56992823 128.91738696 -96.11230469 133.59863281 C-95.53037354 134.38665283 -94.94844238 135.17467285 -94.34887695 135.98657227 C-93.16993322 137.58264815 -91.99081525 139.17859534 -90.81152344 140.77441406 C-89.06493226 143.14063847 -87.32231092 145.50973042 -85.58105469 147.87988281 C-82.67875506 151.83001932 -79.76988387 155.77522999 -76.85595703 159.71679688 C-75.62569243 161.38176163 -74.39690972 163.04782216 -73.16943359 164.71484375 C-65.17392322 175.56195688 -56.98100113 186.06969031 -48.04980469 196.16113281 C-46.75798368 197.6609999 -45.46629143 199.1609779 -44.17480469 200.66113281 C-42.07826187 203.06159707 -39.89996978 205.31746922 -37.61230469 207.53613281 C-35.04980469 210.16113281 -35.04980469 210.16113281 -35.04980469 212.16113281 C-34.46457031 212.4228125 -33.87933594 212.68449219 -33.27636719 212.95410156 C-30.93258745 214.2246769 -29.34369485 215.63231481 -27.42480469 217.47363281 C-15.29558759 228.23523023 -1.1568089 228.45586165 14.33691406 228.57519531 C15.89061974 228.59394602 17.44431565 228.61352221 18.9980011 228.63388062 C23.05022371 228.68479625 27.1024792 228.72463658 31.15484619 228.76202393 C35.30480812 228.80232076 39.45463815 228.85329474 43.60449219 228.90332031 C51.71963581 228.99959795 59.83484577 229.08415373 67.95019531 229.16113281 C67.41103233 228.29036606 67.41103233 228.29036606 66.86097717 227.40200806 C55.06397433 208.34890048 55.06397433 208.34890048 51.25878906 202.18457031 C45.75968683 193.27859522 40.22236538 184.39888815 34.62329102 175.55541992 C30.42103333 168.91536936 26.24322842 162.26021656 22.07519531 155.59863281 C21.14731201 154.11786255 21.14731201 154.11786255 20.20068359 152.60717773 C18.44333412 149.79622666 16.695906 146.9793227 14.95019531 144.16113281 C14.06992676 142.75951904 14.06992676 142.75951904 13.171875 141.32958984 C12.62176758 140.43997559 12.07166016 139.55036133 11.50488281 138.63378906 C11.0122998 137.84367432 10.5197168 137.05355957 10.01220703 136.23950195 C8.95019531 134.16113281 8.95019531 134.16113281 8.95019531 131.16113281 C6.31019531 131.16113281 3.67019531 131.16113281 0.95019531 131.16113281 C0.95907776 132.01668762 0.96796021 132.87224243 0.97711182 133.75372314 C1.0572629 141.81686866 1.11816226 149.87988036 1.157444 157.94333267 C1.17831819 162.08885951 1.20663216 166.23405716 1.25195312 170.37939453 C1.2954178 174.37998438 1.31933369 178.38025762 1.32970428 182.38106537 C1.33709463 183.90732559 1.35152643 185.43356849 1.37311554 186.95969391 C1.40215955 189.09785895 1.40615116 191.23471628 1.40429688 193.37304688 C1.41317932 194.58994202 1.42206177 195.80683716 1.43121338 197.06060791 C0.85413327 200.78032528 -0.04425841 201.9560717 -3.04980469 204.16113281 C-6.90923793 204.71248042 -9.04577307 204.89775466 -12.24017334 202.55413818 C-14.66308513 199.35014809 -14.53306248 197.36744998 -14.50390625 193.37304688 C-14.50449036 192.6994664 -14.50507446 192.02588593 -14.50567627 191.33189392 C-14.50289701 189.11298474 -14.47181583 186.89543128 -14.44042969 184.67675781 C-14.43296665 183.13548517 -14.42727401 181.59420302 -14.42327881 180.05291748 C-14.40802715 176.00190908 -14.36875007 171.95147696 -14.32446289 167.9006958 C-14.28349967 163.76493119 -14.26526559 159.62907319 -14.24511719 155.49316406 C-14.20225459 147.38219342 -14.13190926 139.27180126 -14.04980469 131.16113281 C-19.98980469 131.16113281 -25.92980469 131.16113281 -32.04980469 131.16113281 C-32.02362061 132.43754639 -31.99743652 133.71395996 -31.97045898 135.02905273 C-31.87985053 139.77187521 -31.82251641 144.51462144 -31.77514648 149.25805664 C-31.75002662 151.30961987 -31.71592433 153.36109382 -31.67260742 155.41235352 C-31.61184467 158.36399372 -31.58356976 161.31444932 -31.56152344 164.26660156 C-31.53571701 165.18136765 -31.50991058 166.09613373 -31.48332214 167.03862 C-31.48132225 171.59552689 -31.55977288 173.52557794 -34.42407227 177.24047852 C-37.04980469 179.16113281 -37.04980469 179.16113281 -39.54980469 179.78613281 C-43.33428191 178.84001351 -44.67310309 177.24363535 -47.04980469 174.16113281 C-47.73373286 170.85435801 -47.63300371 167.63117268 -47.53808594 164.26660156 C-47.5310112 163.31924637 -47.52393646 162.37189117 -47.51664734 161.39582825 C-47.48872803 158.3792826 -47.42599384 155.36461442 -47.36230469 152.34863281 C-47.33721865 150.29983155 -47.31440601 148.25100111 -47.29394531 146.20214844 C-47.23890927 141.18775661 -47.15265325 136.17476267 -47.04980469 131.16113281 C-47.81123779 131.18731689 -48.5726709 131.21350098 -49.35717773 131.24047852 C-52.81700903 131.34460296 -56.27651054 131.4095101 -59.73730469 131.47363281 C-61.53458008 131.53647461 -61.53458008 131.53647461 -63.36816406 131.60058594 C-73.28885649 131.73875714 -73.28885649 131.73875714 -76.34277344 128.86425781 C-78.59648032 125.29545881 -78.80292073 123.30327107 -78.04980469 119.16113281 C-75.20556508 116.11099188 -73.53968303 115.22522916 -69.37345886 114.68011475 C-67.93120096 114.66859491 -66.48866206 114.67898545 -65.04663086 114.70703125 C-64.25586151 114.70644714 -63.46509216 114.70586304 -62.65036011 114.70526123 C-60.04737822 114.70803877 -57.44555424 114.73911396 -54.84277344 114.77050781 C-53.03388596 114.7779714 -51.22499038 114.78366378 -49.41609192 114.78765869 C-44.66315247 114.80290576 -39.91070466 114.8421795 -35.15795898 114.88647461 C-30.30491791 114.92744737 -25.45179713 114.94567399 -20.59863281 114.96582031 C-11.08214118 115.00867471 -1.56601387 115.07691477 7.95019531 115.16113281 C8.2605069 114.37380768 8.57081848 113.58648254 8.89053345 112.77529907 C9.77756196 110.58701611 10.71892864 108.65072633 11.91113281 106.62207031 C12.29382324 105.96932129 12.67651367 105.31657227 13.07080078 104.64404297 C13.48475098 103.94843262 13.89870117 103.25282227 14.32519531 102.53613281 C14.7636377 101.79540527 15.20208008 101.05467773 15.65380859 100.29150391 C20.90895993 91.47015924 26.43195292 82.81918753 31.95019531 74.16113281 C39.48963956 62.30651645 46.91792374 50.38730385 54.25585938 38.40698242 C55.21250488 36.84669312 55.21250488 36.84669312 56.18847656 35.25488281 C56.74575439 34.34416016 57.30303223 33.4334375 57.87719727 32.49511719 C60.86321392 27.69273308 63.90786724 22.92798324 66.95019531 18.16113281 C57.24837592 18.04474012 47.54680078 17.9561667 37.84443283 17.90207195 C33.33809307 17.87609518 28.83223468 17.84091843 24.32617188 17.78393555 C19.96891877 17.72918595 15.61212557 17.69962289 11.25455475 17.6867466 C9.60091167 17.67758306 7.94729075 17.65969079 6.29384613 17.63248253 C-11.27585341 17.35514114 -21.74420973 22.5539592 -34.64355469 34.57910156 C-39.72988664 39.51629724 -44.30357823 44.73633934 -48.72167969 50.27441406 C-50.72736777 52.76133268 -52.7883737 55.18474595 -54.88354492 57.59619141 C-61.81942677 65.61404581 -68.05206944 74.11253868 -74.26367188 82.69726562 C-76.04008028 85.14771855 -77.82867322 87.58884439 -79.62011719 90.02832031 C-85.11633934 97.53804821 -90.55444833 104.99148975 -95.04980469 113.16113281 C-98.59978857 109.94395992 -101.51965538 106.41100418 -104.42480469 102.59863281 C-105.13378906 101.66921875 -105.84277344 100.73980469 -106.57324219 99.78222656 C-108.04980469 97.16113281 -108.04980469 97.16113281 -107.77001953 95.19165039 C-106.58965797 91.86383103 -104.40191766 89.2077717 -102.29980469 86.41113281 C-101.81318359 85.7557251 -101.3265625 85.10031738 -100.82519531 84.42504883 C-96.13678863 78.16715493 -91.20752522 72.11312218 -86.24121094 66.07519531 C-83.71596364 62.99814315 -81.26255756 59.87405054 -78.83398438 56.72045898 C-73.78651272 50.17320378 -68.41724317 44.05597398 -62.74511719 38.04394531 C-60.64321566 35.79582455 -58.64232024 33.52412888 -56.67480469 31.16113281 C-41.67739004 13.984917 -23.65395897 0.03624752 0 0 Z " fill="#040404" transform="translate(440.0498046875,39.8388671875)"/>
<path d="M0 0 C7.36839814 3.14161882 11.180784 11.69577346 15.125 18.3125 C16.08992907 19.91089143 17.05611601 21.50852404 18.0234375 23.10546875 C18.76158691 24.32435791 18.76158691 24.32435791 19.51464844 25.56787109 C21.88387485 29.44726516 24.314617 33.28690812 26.75 37.125 C32.68448384 46.48608139 38.56247443 55.88179091 44.4296875 65.28515625 C46.63504875 68.81902712 48.84709469 72.34843081 51.0703125 75.87109375 C51.52841309 76.59852783 51.98651367 77.32596191 52.45849609 78.07543945 C53.28470079 79.38659039 54.11295659 80.69645251 54.94384766 82.00463867 C61.43460874 92.32118478 61.43460874 92.32118478 61.5625 99.125 C61.62630859 100.64480469 61.62630859 100.64480469 61.69140625 102.1953125 C59.85271134 112.31332858 53.11223927 121.28330028 47.5625 129.75 C46.14079136 131.94457716 44.72024759 134.13990934 43.30078125 136.3359375 C42.58486816 137.44163086 41.86895508 138.54732422 41.13134766 139.68652344 C37.7875615 144.8849044 34.51626811 150.12768495 31.25 155.375 C30.01576417 157.35555549 28.78139153 159.33602572 27.546875 161.31640625 C26.95455078 162.26660645 26.36222656 163.21680664 25.75195312 164.19580078 C21.61379289 170.81939449 17.434988 177.41730219 13.25439453 184.01416016 C12.09933564 185.84274112 10.95216715 187.67594053 9.80859375 189.51171875 C9.19113281 190.49785156 8.57367187 191.48398438 7.9375 192.5 C7.43089844 193.3146875 6.92429687 194.129375 6.40234375 194.96875 C5.06667599 196.90342197 3.79463044 198.4825889 2 200 C1.34 200 0.68 200 0 200 C-1.13818359 198.46557617 -1.13818359 198.46557617 -2.3984375 196.29296875 C-2.8713623 195.48875488 -3.34428711 194.68454102 -3.83154297 193.85595703 C-4.34088379 192.97536621 -4.85022461 192.09477539 -5.375 191.1875 C-6.46692861 189.33356145 -7.56072404 187.48072133 -8.65625 185.62890625 C-9.21441406 184.68418457 -9.77257812 183.73946289 -10.34765625 182.76611328 C-12.79053194 178.67660654 -15.32130317 174.64596938 -17.875 170.625 C-18.36621338 169.85075684 -18.85742676 169.07651367 -19.36352539 168.27880859 C-20.90658558 165.85098102 -22.4527916 163.42518588 -24 161 C-31.34602227 149.47926048 -38.6820607 137.95309838 -45.9375 126.375 C-46.53989502 125.41634033 -47.14229004 124.45768066 -47.76293945 123.4699707 C-48.9306192 121.60268485 -50.0890726 119.72959471 -51.23779297 117.85058594 C-52.46906202 115.85885729 -53.73695821 113.88951502 -55.03173828 111.93847656 C-61.14934567 102.36295938 -61.14934567 102.36295938 -59.78222656 96.10986328 C-58.32790838 92.18719857 -56.23239465 88.87622703 -53.875 85.4375 C-52.7735221 83.76382145 -51.67332166 82.08930166 -50.57421875 80.4140625 C-49.99075684 79.53524414 -49.40729492 78.65642578 -48.80615234 77.75097656 C-45.68139847 72.99161908 -42.69199235 68.14830946 -39.6875 63.3125 C-38.42098892 61.28359442 -37.15405717 59.25495139 -35.88671875 57.2265625 C-34.59109607 55.15107273 -33.29552392 53.07555142 -32 51 C-29.33389721 46.72881427 -26.66712776 42.45804575 -24 38.1875 C-23.10220825 36.7485437 -23.10220825 36.7485437 -22.1862793 35.28051758 C-18.7034753 29.70404417 -15.19026099 24.14808594 -11.65576172 18.60424805 C-9.27080672 14.85309574 -6.91416307 11.08458207 -4.5625 7.3125 C-4.11712891 6.59900391 -3.67175781 5.88550781 -3.21289062 5.15039062 C-2.14149941 3.43386061 -1.07068359 1.71697148 0 0 Z " fill="#FBFBFB" transform="translate(523,63)"/>
<path d="M0 0 C2.93801327 1.41886211 5.19470437 2.87523393 7.625 5.0625 C8.66720703 5.99835937 8.66720703 5.99835937 9.73046875 6.953125 C10.47941406 7.62859375 11.22835937 8.3040625 12 9 C12.80050781 9.69609375 13.60101563 10.3921875 14.42578125 11.109375 C20.42483615 16.3713765 25.76088798 21.98930966 31 28 C32.33289339 29.47956312 33.66621611 30.9587396 35 32.4375 C39.01969414 36.97051461 42.85507694 41.64172942 46.66503906 46.3515625 C48.16665916 48.20579419 49.67292939 50.05619126 51.1796875 51.90625 C53.97174632 55.33522948 56.7587727 58.76824729 59.54296875 62.20361328 C60.75562946 63.69871339 61.97119927 65.19145339 63.1875 66.68359375 C67.77879738 72.35575905 72.14309459 78.18294091 76.49926758 84.03588867 C80.17871931 88.95947575 84.01589405 93.72291779 87.94140625 98.453125 C89.94754763 100.93510636 91.82869856 103.46882358 93.6875 106.0625 C104.73858009 121.46770565 116.5779533 136.41679848 129.51953125 150.2734375 C131.10260751 152.01357487 132.63571624 153.80145232 134.09765625 155.64453125 C137.00448574 159.24374723 140.46210554 162.03947026 144 165 C144.7425 165.64195312 145.485 166.28390625 146.25 166.9453125 C158.24917729 177.01041187 172.55706514 185.46477763 188.671875 185.21875 C213.62342366 182.87430919 233.16856765 165.42032325 248.65625 147.11328125 C256.01935283 138.20820162 262.64968555 128.64759311 269 119 C272.74705574 122.58007465 275.92909035 126.28333476 278.9375 130.5 C279.36095703 131.05558594 279.78441406 131.61117187 280.22070312 132.18359375 C282.04001509 134.73965188 283.10715406 136.28297973 282.6328125 139.45703125 C280.36490846 142.98910189 277.73440527 146.0646724 274.9375 149.1875 C274.3511377 149.85168945 273.76477539 150.51587891 273.16064453 151.20019531 C271.98406055 152.53058322 270.80442629 153.85828046 269.62158203 155.18310547 C268.2492135 156.72076982 266.88711898 158.26759434 265.52734375 159.81640625 C263.38244915 162.24157746 261.20419655 164.62864216 259 167 C258.19691406 167.86882812 257.39382813 168.73765625 256.56640625 169.6328125 C238.37919908 188.60371805 213.99947901 204.58406986 187 205.375 C158.92851069 204.44671001 134.8875382 186.76394694 116.078125 167.23828125 C115.39234375 166.49964844 114.7065625 165.76101562 114 165 C113.43796875 164.39542969 112.8759375 163.79085937 112.296875 163.16796875 C110.48391273 161.14818797 108.73796758 159.08488746 107 157 C106.55849609 156.47229004 106.11699219 155.94458008 105.66210938 155.40087891 C98.62471838 146.95923788 91.93018135 138.31464933 85.45410156 129.43603516 C80.27228968 122.33646591 74.96021433 115.34208439 69.62109375 108.36035156 C66.11796041 103.7791992 62.63196084 99.18791884 59.1875 94.5625 C55.67396555 89.862319 52.07418469 85.23731303 48.4362793 80.63330078 C45.79673392 77.29190834 43.17460123 73.93840265 40.57421875 70.56640625 C33.59241479 61.51804967 26.48388529 52.63805591 19 44 C17.96359375 42.79537109 17.96359375 42.79537109 16.90625 41.56640625 C14.52839605 38.82079098 12.1652869 36.16104877 9.5625 33.625 C8 32 8 32 8 30 C7.01 29.67 6.02 29.34 5 29 C2.33203125 27.20703125 2.33203125 27.20703125 0 24 C-0.62111667 19.88065738 -0.47030107 15.8413096 -0.3125 11.6875 C-0.28994141 10.56537109 -0.26738281 9.44324219 -0.24414062 8.28710938 C-0.18533776 5.52337464 -0.10320401 2.76237446 0 0 Z " fill="#040404" transform="translate(32,52)"/>
<path d="M0 0 C2.1893158 0.93911743 2.1893158 0.93911743 4 3 C4.62269339 6.10667831 4.55617708 9.18972932 4.53344727 12.34912109 C4.54206284 13.3071312 4.55067841 14.2651413 4.55955505 15.25218201 C4.58229928 18.42620696 4.57545961 21.5993549 4.56640625 24.7734375 C4.57163875 26.97677881 4.57791385 29.18011786 4.58518982 31.38345337 C4.59561018 36.00541713 4.59100996 40.62707334 4.57641602 45.24902344 C4.55924183 51.17330485 4.58269875 57.0966152 4.61790562 63.02078819 C4.63986537 67.5727278 4.63844125 72.12443466 4.6301403 76.67641068 C4.6293197 78.86050098 4.63620379 81.0446082 4.65091133 83.22864914 C4.66832668 86.28373603 4.65383803 89.33707342 4.63110352 92.39208984 C4.64279572 93.29512344 4.65448792 94.19815704 4.66653442 95.1285553 C4.59889979 99.59445966 4.44264482 101.42972175 1.62071228 105.06533813 C-1 107 -1 107 -3.5625 107.5625 C-6.95198062 106.78031216 -7.93178588 105.82215168 -10 103 C-10.60045658 99.80885662 -10.53589553 96.65277989 -10.50170898 93.41381836 C-10.50711197 92.44269608 -10.51251495 91.47157379 -10.51808167 90.47102356 C-10.53059143 87.26032051 -10.51406374 84.05051013 -10.49609375 80.83984375 C-10.49624867 78.61072238 -10.49773653 76.38160074 -10.50050354 74.15248108 C-10.5018885 69.48100883 -10.48931188 64.80984324 -10.46655273 60.13842773 C-10.43815164 54.14355749 -10.44090872 48.1491963 -10.45364285 42.15428829 C-10.46058937 37.55184055 -10.45282273 32.94951098 -10.44038582 28.34707832 C-10.4358625 26.13623062 -10.43554217 23.92537028 -10.43945122 21.71452141 C-10.44235375 18.62834422 -10.42590259 15.54287496 -10.40405273 12.45678711 C-10.40855438 11.53878326 -10.41305603 10.62077942 -10.41769409 9.67495728 C-10.40778946 8.83519852 -10.39788483 7.99543976 -10.38768005 7.13023376 C-10.38525016 6.40076003 -10.38282026 5.6712863 -10.38031673 4.9197073 C-9.26785437 -0.69561785 -4.88613752 -0.51433027 0 0 Z " fill="#020101" transform="translate(226,110)"/>
<path d="M0 0 C1.68859863 1.13101196 1.68859863 1.13101196 3 3 C3.39440918 6.02255249 3.39440918 6.02255249 3.41992188 9.77880859 C3.42839142 10.46371872 3.43686096 11.14862885 3.44558716 11.85429382 C3.46899202 14.11919715 3.46997843 16.38342236 3.46875 18.6484375 C3.47585045 20.22401197 3.48354927 21.79958384 3.49182129 23.37515259 C3.50527473 26.67888574 3.5068315 29.98237992 3.50097656 33.28613281 C3.49508501 37.51555529 3.52564386 41.74382802 3.56609344 45.97302818 C3.59197381 49.22791702 3.59484751 52.48252933 3.59120178 55.73750687 C3.59289331 57.29641226 3.60253913 58.85533038 3.62034607 60.41413498 C3.6425409 62.59766693 3.63283482 64.77887679 3.61523438 66.96240234 C3.61728882 68.20355804 3.61934326 69.44471375 3.62145996 70.72348022 C2.82785618 74.90759285 1.32649276 76.42061169 -2 79 C-5.16334836 79 -7.03315111 78.65766234 -9.6544342 76.87463379 C-11.72042195 73.99631268 -11.38925912 71.5136409 -11.40405273 68.00585938 C-11.41091599 67.29822952 -11.41777924 66.59059967 -11.42485046 65.86152649 C-11.44315461 63.52206367 -11.43927649 61.18326907 -11.43359375 58.84375 C-11.43815351 57.21854432 -11.44345847 55.59334058 -11.44947815 53.96813965 C-11.45841607 50.56185065 -11.45597811 47.15579603 -11.44604492 43.74951172 C-11.43454814 39.38104059 -11.45477343 35.01337692 -11.48396206 30.6450119 C-11.50229327 27.28898976 -11.50203792 23.93316229 -11.49632454 20.57710266 C-11.49617098 18.96632249 -11.50224405 17.35552942 -11.51461601 15.74479675 C-11.52946884 13.49405996 -11.51889373 11.24482974 -11.50170898 8.99414062 C-11.50154282 7.71301392 -11.50137665 6.43188721 -11.50120544 5.11193848 C-11 2 -11 2 -9.19129944 0.05505371 C-5.85368172 -1.55192245 -3.5161121 -0.89501035 0 0 Z " fill="#020201" transform="translate(192,124)"/>
<path d="M0 0 C3.37005208 1.21895501 4.71473786 2.26960327 6.9375 5.0625 C7.4521637 7.93955994 7.4521637 7.93955994 7.47094727 11.31225586 C7.49470177 13.20958717 7.49470177 13.20958717 7.51893616 15.14524841 C7.51509442 16.52261728 7.51005522 17.89998325 7.50390625 19.27734375 C7.50914301 20.69454863 7.51541969 22.11175002 7.52268982 23.52894592 C7.53309132 26.49724747 7.52853741 29.46506956 7.51391602 32.43334961 C7.49673642 36.23126088 7.52021164 40.02765807 7.55540562 43.82540035 C7.57740276 46.75177473 7.57593266 49.67778817 7.5676403 52.60421944 C7.56682186 54.00402041 7.57366502 55.40384817 7.58841133 56.8035717 C7.60589249 58.76343083 7.58797429 60.72350825 7.56860352 62.68334961 C7.56716087 64.35402748 7.56716087 64.35402748 7.56568909 66.05845642 C6.73091986 70.05038047 5.10920974 71.57764013 1.9375 74.0625 C-1.6875 74.125 -1.6875 74.125 -5.0625 73.0625 C-8.28853416 69.85350063 -8.44879003 67.25876577 -8.48242188 62.81274414 C-8.49833374 61.5478566 -8.51424561 60.28296906 -8.53063965 58.97975159 C-8.53190692 57.60238704 -8.53208376 56.22502112 -8.53125 54.84765625 C-8.53835364 53.43045246 -8.54605294 52.01325155 -8.55432129 50.59605408 C-8.56775828 47.62783816 -8.56933852 44.65988819 -8.56347656 41.69165039 C-8.55758069 37.89379155 -8.58816839 34.09721122 -8.62859344 30.29959965 C-8.65448358 27.37325708 -8.65734679 24.44722187 -8.65370178 21.52078056 C-8.65539182 20.12096378 -8.66502344 18.72113263 -8.68284607 17.3214283 C-8.70505513 15.36162742 -8.69211677 13.40152433 -8.67773438 11.44165039 C-8.67978882 10.32786514 -8.68184326 9.2140799 -8.68395996 8.06654358 C-7.6829914 3.22801277 -5.05105329 0.10308272 0 0 Z " fill="#090909" transform="translate(258.0625,125.9375)"/>
<path d="M0 0 C2.74301985 1.83059274 4.65835225 3.55784087 6.4921875 6.30859375 C7.4661712 11.66550411 7.05731767 16.33234831 4.1796875 20.99609375 C0.14614877 24.79914455 -3.32171188 25.56669574 -8.75390625 25.44140625 C-12.70412451 24.7704853 -14.32427681 23.0039378 -17.0078125 20.05859375 C-19.29193231 16.11329589 -19.4099088 12.56207236 -19.0078125 8.05859375 C-17.48789146 4.87399729 -15.72485291 2.32279409 -13.0078125 0.05859375 C-8.55710428 -1.42497566 -4.31483743 -2.02310471 0 0 Z " fill="#050505" transform="translate(433.0078125,97.94140625)"/>
<path d="M0 0 C3.00869887 1.78524456 5.40952957 3.81905914 7 7 C7.51037087 11.05380289 7.89274541 15.1774658 6.05859375 18.921875 C3.5143895 22.14400202 1.00389364 24.18102176 -3 25 C-7.88700935 25.1426864 -11.03481474 24.7598267 -14.9375 21.6875 C-17.83987896 17.90561226 -19.39827205 15.39641771 -18.9375 10.5625 C-18.30349614 5.97351968 -16.72576638 3.85930908 -13 1 C-8.59329933 -1.63493442 -4.86448476 -1.32973805 0 0 Z " fill="#070707" transform="translate(558,151)"/>
<path d="M0 0 C3.73725399 2.22750238 6.39978224 4.92397363 8 9 C8.24304248 13.52869146 7.56741246 17.11105381 5.125 20.9375 C1.88049696 24.08657648 -0.28331584 25.33353972 -4.75 25.5 C-9.73088251 25.41978081 -12.17401913 23.98711118 -15.72265625 20.60546875 C-18.54327094 17.06029248 -18.29370288 13.33211752 -18 9 C-16.42819845 4.28459535 -14.32204442 1.82256661 -9.9609375 -0.3671875 C-6.43663698 -1.50451157 -3.46722996 -1.22372822 0 0 Z " fill="#070707" transform="translate(530,198)"/>
<path d="M0 0 C4.07622039 2.20595457 7.16248683 4.8338864 8.859375 9.22265625 C9.66429017 13.9153117 9.04418172 17.60103377 6.359375 21.5546875 C3.45470922 24.64298158 0.14494846 25.90620948 -4.0546875 26.08984375 C-8.82182722 25.73905422 -11.70274699 24.39423104 -15 21 C-17.66381631 17.44824491 -17.54502874 13.26655312 -17 9 C-13.76656756 1.51205119 -7.96120543 -1.92758871 0 0 Z " fill="#070707" transform="translate(500,150)"/>
<path d="M0 0 C3.88596781 2.00258464 6.39313112 4.95279286 8 9 C8.24304248 13.52869146 7.56741246 17.11105381 5.125 20.9375 C1.88049696 24.08657648 -0.28331584 25.33353972 -4.75 25.5 C-9.73088251 25.41978081 -12.17401913 23.98711118 -15.72265625 20.60546875 C-18.54327094 17.06029248 -18.29370288 13.33211752 -18 9 C-16.75588046 5.59504127 -15.61690397 3.56082179 -12.9375 1.125 C-8.58035626 -0.54369335 -4.59936699 -0.79477062 0 0 Z " fill="#060505" transform="translate(530,103)"/>
</svg>
