<?xml version="1.0" encoding="UTF-8"?>
<svg version="1.1" xmlns="http://www.w3.org/2000/svg" width="879" height="612">
<path d="M0 0 C290.07 0 580.14 0 879 0 C879 201.96 879 403.92 879 612 C588.93 612 298.86 612 0 612 C0 410.04 0 208.08 0 0 Z " fill="#FDFDFD" transform="translate(0,0)"/>
<path d="M0 0 C12.20903913 6.42342446 23.491854 14.24083814 34.875 22 C38.70328068 24.6006486 42.53335909 27.19864465 46.36328125 29.796875 C47.29206589 30.42777039 48.22085052 31.05866577 49.17778015 31.7086792 C54.3583918 35.22410354 59.55579039 38.71005397 64.79296875 42.140625 C65.8804541 42.85476563 66.96793945 43.56890625 68.08837891 44.3046875 C69.97811002 45.54072243 71.8718815 46.77061893 73.77099609 47.9921875 C84.18706342 54.82159968 93.72352483 62.65988139 98.375 74.5 C99.76782652 82.29982852 98.78479682 89.14640073 96.8125 96.75 C96.34859664 98.61188909 95.88506527 100.47387089 95.421875 102.3359375 C95.18404297 103.27791992 94.94621094 104.21990234 94.70117188 105.19042969 C93.82045175 108.71944332 92.99150331 112.25940347 92.16430664 115.80126953 C89.97047155 125.18358576 87.57834857 134.50293989 85.09008789 143.8112793 C83.65370316 149.25224329 82.46261532 154.64396824 81.5 160.1875 C78.21326348 177.2256399 67.78188946 187.45723579 54 197 C50.05561693 199.61855948 46.06567034 202.15996236 42.0625 204.6875 C39.85509539 206.09055861 37.64806893 207.49421231 35.44140625 208.8984375 C34.3548877 209.58905273 33.26836914 210.27966797 32.14892578 210.99121094 C27.58169971 213.90477398 23.0390415 216.85529319 18.5 219.8125 C17.69312744 220.33610107 16.88625488 220.85970215 16.05493164 221.39916992 C12.15460174 223.93230021 8.26890471 226.48395821 4.40625 229.07421875 C-8.20321801 237.48743476 -21.15940034 245.59836453 -37.0625 242.4375 C-48.38388031 238.78923815 -57.45499831 231.9836895 -66.70751953 224.78173828 C-70.90982033 221.51566893 -75.1436431 218.29078004 -79.375 215.0625 C-80.26541992 214.38227783 -81.15583984 213.70205566 -82.07324219 213.0012207 C-92.15006998 205.32463985 -102.43294558 197.94257948 -112.76953125 190.62109375 C-141.2497387 170.3739477 -141.2497387 170.3739477 -145 157 C-147.00830196 144.33224916 -142.44819172 132.03478215 -139 120 C-138.57555254 118.46685569 -138.15346208 116.93305574 -137.734375 115.3984375 C-136.9521748 112.53642111 -136.15570886 109.67904023 -135.34765625 106.82421875 C-134.2992452 103.10669148 -133.29931047 99.37783505 -132.30859375 95.64453125 C-131.70575464 93.4088473 -131.10289018 91.17317018 -130.5 88.9375 C-130.22744385 87.89029785 -129.9548877 86.8430957 -129.67407227 85.76416016 C-123.49621758 63.07630217 -105.36226207 51.55629236 -87.18066406 38.55908203 C-85.26147319 37.1869422 -83.3449308 35.81123449 -81.4296875 34.43359375 C-73.80050434 28.95445311 -66.11157697 23.56194383 -58.40527344 18.19189453 C-54.56595016 15.51317739 -50.73765618 12.82508295 -46.9609375 10.05859375 C-32.74337028 -0.34924692 -17.4307409 -8.24539012 0 0 Z " fill="#050505" transform="translate(261,332)"/>
<path d="M0 0 C0.92941406 -0.03738281 1.85882812 -0.07476562 2.81640625 -0.11328125 C13.00840122 1.08513024 21.60617528 5.74593815 30.25 11 C31.30550049 11.62865967 32.36100098 12.25731934 33.44848633 12.9050293 C36.45157736 14.69656892 39.44574164 16.502119 42.4375 18.3125 C43.72613705 19.08664615 45.01512539 19.86020829 46.3046875 20.6328125 C49.625 22.625 49.625 22.625 51.27563477 23.62768555 C54.99762846 25.88086015 58.75037467 28.07506162 62.52388 30.24101257 C65.09842065 31.71945898 67.66871302 33.20522685 70.23916626 34.69076538 C71.51506841 35.42535391 72.79297763 36.15646993 74.0730896 36.88369751 C89.94248298 45.90258236 104.8439253 56.7419012 109.96615601 75.21954346 C111.38402161 80.82382378 112.59282146 86.47501853 113.8125 92.125 C114.20562983 93.91341381 114.59951654 95.70166141 114.99414062 97.48974609 C115.97198569 101.93268835 116.93814616 106.37806425 117.89929199 110.824646 C118.40375344 113.1565073 118.910733 115.48780134 119.41894531 117.81884766 C128.27505062 158.45279448 128.27505062 158.45279448 119.6875 172 C114.53470053 179.16639343 108.19777422 184.40140809 101.25585938 189.77294922 C96.40456877 193.52776721 91.6588583 197.3959005 86.9375 201.3125 C81.24968785 206.02334677 75.51302429 210.65494297 69.68457031 215.19042969 C65.83659265 218.19163175 62.04603677 221.25559293 58.27392578 224.3515625 C31.98821996 245.9067025 31.98821996 245.9067025 13.4375 244.3125 C2.21844605 242.2407997 -7.14766013 235.37639881 -16.5625 229.3125 C-17.8783288 228.47955584 -19.1947098 227.64748316 -20.51171875 226.81640625 C-29.13133028 221.34159853 -37.60823605 215.64477158 -46.07672119 209.93994141 C-47.29607517 209.11922623 -48.51653688 208.3001539 -49.73822021 207.48291016 C-57.69579352 202.15383164 -65.23611922 196.49321283 -72.5625 190.3125 C-73.46000977 189.581521 -74.35751953 188.85054199 -75.28222656 188.09741211 C-84.73976559 180.34188452 -92.23634069 169.15176634 -95.5625 157.3125 C-95.5625 156.3225 -95.5625 155.3325 -95.5625 154.3125 C-97.22804932 154.33606567 -97.22804932 154.33606567 -98.92724609 154.36010742 C-103.03833795 154.41431869 -107.1493981 154.44881775 -111.26074219 154.47729492 C-113.04172067 154.49240173 -114.82266184 154.51288835 -116.60351562 154.53881836 C-119.16024978 154.57511943 -121.7164931 154.59220688 -124.2734375 154.60546875 C-125.07244476 154.62095261 -125.87145203 154.63643646 -126.69467163 154.65238953 C-128.93896484 154.65307617 -128.93896484 154.65307617 -132.5625 154.3125 C-134.87611802 150.84207297 -135.07270728 149.39415827 -134.5625 145.3125 C-132.16217152 142.76768646 -130.66915717 142.32609702 -127.17089844 141.88012695 C-125.8512207 141.85394287 -124.53154297 141.82775879 -123.171875 141.80078125 C-122.46726135 141.78283005 -121.76264771 141.76487885 -121.03668213 141.74638367 C-118.79534821 141.69238142 -116.55422595 141.65841912 -114.3125 141.625 C-112.78903311 141.59181782 -111.26559411 141.55732731 -109.7421875 141.52148438 C-106.0158284 141.43666262 -102.28939537 141.36980276 -98.5625 141.3125 C-99.10365623 138.04468715 -99.64562828 134.77701323 -100.1887207 131.50952148 C-100.64946597 128.73731633 -101.10723399 125.96464003 -101.56323242 123.19165039 C-102.95440197 114.71301844 -102.95440197 114.71301844 -104.5625 106.2734375 C-107.64478466 91.22328828 -109.58380715 75.79110074 -101.46875 62.12109375 C-100.8396875 61.19425781 -100.210625 60.26742187 -99.5625 59.3125 C-99.1190625 58.62285156 -98.675625 57.93320313 -98.21875 57.22265625 C-86.48861381 41.4513451 -61.58676204 31.31981493 -45.09912109 21.32055664 C-41.21886021 18.96105784 -37.36958994 16.56118527 -33.546875 14.109375 C-32.70423096 13.57014404 -31.86158691 13.03091309 -30.9934082 12.4753418 C-29.38943195 11.44586326 -27.78871966 10.411272 -26.19213867 9.37036133 C-17.8379546 4.01060693 -10.04735549 0.25972756 0 0 Z " fill="#050505" transform="translate(695.5625,35.6875)"/>
<path d="M0 0 C4.49363621 1.8597109 7.8995125 5.31572193 11.52246094 8.484375 C14.67383697 11.16405409 17.97124295 13.65486072 21.26171875 16.16015625 C21.98286865 16.71018311 22.70401855 17.26020996 23.44702148 17.8269043 C35.02886181 26.61781723 46.89861567 35.01122845 58.78710938 43.37988281 C88.85946727 64.57040477 88.85946727 64.57040477 94.19921875 69.91015625 C94.19921875 71.72265625 94.19921875 71.72265625 93.19921875 73.91015625 C88.62367749 78.07297372 83.6386178 81.29213937 78.38671875 84.53515625 C76.68050158 85.60078153 74.97478183 86.66720363 73.26953125 87.734375 C72.41649414 88.26724121 71.56345703 88.80010742 70.68457031 89.34912109 C64.90736866 92.97774853 59.19714763 96.71098526 53.47802734 100.43017578 C50.966773 102.06111898 48.4522597 103.68696737 45.9375 105.3125 C44.14969345 106.46998083 42.36193228 107.62753175 40.57421875 108.78515625 C39.7447876 109.32068115 38.91535645 109.85620605 38.06079102 110.40795898 C33.35018242 113.46293214 28.75734473 116.63272978 24.19921875 119.91015625 C19.45876752 122.60068263 14.49730901 122.4703088 9.19921875 121.91015625 C1.7953109 119.79779338 -4.07679797 115.94086406 -10.11328125 111.28515625 C-10.94013428 110.6619751 -11.7669873 110.03879395 -12.61889648 109.39672852 C-15.02266272 107.5802846 -17.41414694 105.7490299 -19.80078125 103.91015625 C-20.40857422 103.4423877 -21.01636719 102.97461914 -21.64257812 102.49267578 C-24.25596663 100.47825355 -26.86581461 98.45924904 -29.4765625 96.44140625 C-38.54958623 89.49302576 -47.86323012 82.86727287 -57.3359375 76.4765625 C-57.89660919 76.09789536 -58.45728088 75.71922821 -59.03494263 75.3290863 C-61.8126941 73.45504254 -64.59545837 71.58953221 -67.38574219 69.73413086 C-68.40571289 69.04971924 -69.42568359 68.36530762 -70.4765625 67.66015625 C-71.38317627 67.056875 -72.28979004 66.45359375 -73.22387695 65.83203125 C-76.04269873 63.72973234 -78.44260615 61.51810115 -80.80078125 58.91015625 C-81.05078125 56.53515625 -81.05078125 56.53515625 -79.80078125 53.91015625 C-75.40399623 48.8959371 -70.30835758 44.76814477 -64.98828125 40.78515625 C-64.25907471 40.23384033 -63.52986816 39.68252441 -62.77856445 39.11450195 C-51.62302559 30.71782144 -40.35473576 22.47260977 -28.67578125 14.81640625 C-25.98862136 13.03470241 -23.34131163 11.20795146 -20.70117188 9.35791016 C-18.07956389 7.5247276 -15.43932714 5.7188369 -12.80078125 3.91015625 C-12.10984375 3.41773438 -11.41890625 2.9253125 -10.70703125 2.41796875 C-7.23257609 0.12798694 -4.15065013 -0.81431803 0 0 Z " fill="#FCFCFC" transform="translate(218.80078125,438.08984375)"/>
<path d="M0 0 C3.21877047 1.81872007 6.18325624 3.97498643 9.1875 6.125 C11.14232401 7.49144436 13.09952892 8.85448641 15.05859375 10.21484375 C15.5910672 10.58545425 16.12354065 10.95606476 16.67214966 11.33790588 C23.51112402 16.07938113 30.48178586 20.62177049 37.4446106 25.17840576 C39.74490487 26.68416476 42.04348396 28.19250721 44.34155273 29.70166016 C50.55237979 33.77941349 56.76619395 37.85195611 63 41.89453125 C64.58342317 42.92955007 66.16676723 43.96468995 67.75 45 C68.41483398 45.42498779 69.07966797 45.84997559 69.76464844 46.2878418 C76.06604874 50.42845224 82.31773503 55.38237725 84.64135742 62.79638672 C86.00054308 71.14765272 83.22660931 80.08640861 81.1875 88.125 C80.64277807 90.32540921 80.09850877 92.52593052 79.5546875 94.7265625 C79.28881836 95.79293945 79.02294922 96.85931641 78.74902344 97.95800781 C77.89726519 101.41723458 77.09425057 104.88576646 76.30151367 108.35888672 C75.00889996 114.01850839 73.60594219 119.55865624 71.6484375 125.03125 C70.94385115 127.17047602 70.46046333 129.2958149 70 131.5 C67.4610245 143.5389755 67.4610245 143.5389755 64 147 C52.45279495 146.15585949 41.65767613 135.14397251 32.703125 128.48046875 C28.82060428 125.59508538 24.8942775 122.78210918 20.9375 120 C13.14952164 114.49812548 5.66982422 108.59846899 -1.82373047 102.70532227 C-4.0712004 100.94420745 -6.3303156 99.19873161 -8.58984375 97.453125 C-12.55533605 94.36971127 -16.43056073 91.19957766 -20.25 87.9375 C-20.83523437 87.44701172 -21.42046875 86.95652344 -22.0234375 86.45117188 C-23.71997632 85.00378842 -25.36647225 83.51792891 -27 82 C-27.50595703 81.55285645 -28.01191406 81.10571289 -28.53320312 80.64501953 C-31.28364228 77.88974486 -32.39705841 75.4778048 -32.65234375 71.69140625 C-32.22719769 63.8078154 -29.1503292 56.32409408 -26.5625 48.9375 C-26.01334323 47.33687081 -25.46525678 45.73587402 -24.91821289 44.13452148 C-23.55452982 40.15765861 -22.17129292 36.18797242 -20.77893066 32.22106934 C-20.04810081 30.13715627 -19.32154943 28.05181274 -18.59667969 25.96582031 C-17.38710552 22.49435158 -16.16670796 19.02705995 -14.9375 15.5625 C-14.58051025 14.55243896 -14.22352051 13.54237793 -13.85571289 12.50170898 C-8.49499721 -2.32818723 -8.49499721 -2.32818723 0 0 Z " fill="#FCFCFC" transform="translate(260,348)"/>
<path d="M0 0 C12.03206937 10.31320232 12.99061327 40.46653407 15.97079468 55.52334595 C16.23735367 56.86809531 16.50652195 58.21233044 16.7784729 59.55599976 C20.76169551 79.32290059 20.76169551 79.32290059 15.66015625 88.53125 C10.06856915 96.84626894 1.83982548 102.61953474 -6.08251953 108.55322266 C-9.70904176 111.28950617 -13.29007875 114.08457481 -16.875 116.875 C-18.02391724 117.76832031 -18.02391724 117.76832031 -19.19604492 118.6796875 C-24.07571908 122.48077279 -28.92442984 126.31803479 -33.75 130.1875 C-34.35376465 130.66920654 -34.9575293 131.15091309 -35.57958984 131.6472168 C-38.67715289 134.12134204 -41.75056396 136.61921968 -44.796875 139.15625 C-46.03117556 140.1667576 -47.26554792 141.1771775 -48.5 142.1875 C-49.05139648 142.65760498 -49.60279297 143.12770996 -50.17089844 143.61206055 C-54.0020326 146.71890358 -57.02757569 148.1684583 -62 148 C-66.10130524 144.05782658 -67.22798868 139.77869611 -68.5234375 134.43359375 C-68.7333432 133.60057236 -68.9432489 132.76755096 -69.15951538 131.9092865 C-71.41837865 122.70507272 -73.05667214 113.40439736 -74.625 104.0625 C-74.9133485 102.3911527 -75.20241074 100.71992838 -75.4921875 99.04882812 C-76.97495863 90.43911332 -78.3670918 81.81577231 -79.6875 73.1796875 C-79.81444244 72.3615004 -79.94138489 71.54331329 -80.07217407 70.70033264 C-82.65253045 53.52872571 -82.65253045 53.52872571 -78 47 C-72.43244111 41.54996214 -64.89424636 37.75411068 -58.296875 33.671875 C-48.60088796 27.66297182 -39.08404083 21.36980145 -29.546875 15.11328125 C-28.89192551 14.68372635 -28.23697601 14.25417145 -27.56217957 13.81159973 C-24.2483741 11.63797123 -20.93551892 9.46291793 -17.62426758 7.28540039 C-16.3966641 6.4793036 -15.16904438 5.67323153 -13.94140625 4.8671875 C-12.84513916 4.14644043 -11.74887207 3.42569336 -10.61938477 2.68310547 C-6.77180496 0.210814 -4.63056865 -0.55566824 0 0 Z " fill="#FBFBFB" transform="translate(787,111)"/>
<path d="M0 0 C6.13403114 3.54087572 12.29253522 7.01460881 18.54589844 10.34106445 C19.14830353 10.6618396 19.75070862 10.98261475 20.37136841 11.31311035 C23.25206977 12.84364373 26.13847756 14.36222521 29.03173828 15.86889648 C30.05477051 16.40885254 31.07780273 16.94880859 32.13183594 17.50512695 C33.03240723 17.974104 33.93297852 18.44308105 34.86083984 18.92626953 C37.03027344 20.2980957 37.03027344 20.2980957 39.03027344 23.2980957 C38.9124703 28.59923675 36.67026225 31.6787463 33.03027344 35.2980957 C30.59776457 37.19152504 28.0289699 38.80863018 25.40527344 40.4230957 C24.66672119 40.88901123 23.92816895 41.35492676 23.16723633 41.83496094 C21.59674656 42.82448312 20.02351327 43.80966258 18.44775391 44.79077148 C16.04198599 46.2907928 13.64615698 47.80550271 11.25292969 49.32543945 C7.28355063 51.84514634 3.30687248 54.35295936 -0.67382812 56.85473633 C-2.88572479 58.24528642 -5.09575653 59.63876243 -7.30566406 61.0324707 C-34.11707842 77.90766809 -34.11707842 77.90766809 -42.96972656 76.2980957 C-47.70547879 74.35605756 -52.15644277 71.98413457 -56.65087891 69.54272461 C-59.03795579 68.26147404 -61.44598108 67.03106558 -63.86425781 65.80981445 C-81.14250096 57.03372113 -98.87379756 47.55980878 -113.96972656 35.2980957 C-114.8553125 34.58073242 -114.8553125 34.58073242 -115.75878906 33.84887695 C-117.21972656 32.5480957 -117.21972656 32.5480957 -118.96972656 30.2980957 C-118.77319509 27.64757664 -118.27284012 26.57971185 -116.31738281 24.76293945 C-108.46843152 19.51688825 -100.41946118 14.61342708 -92.33984375 9.7331543 C-89.31995636 7.90467283 -86.31044908 6.05956477 -83.30151367 4.21313477 C-80.32290919 2.3875491 -77.33814478 0.57213204 -74.35400391 -1.24438477 C-71.79970027 -2.80584214 -69.25403338 -4.38089658 -66.70800781 -5.95581055 C-64.94130948 -7.03821524 -63.17438723 -8.12025457 -61.40722656 -9.2019043 C-60.59850098 -9.7064917 -59.78977539 -10.2110791 -58.95654297 -10.73095703 C-36.11360717 -24.6323804 -20.68936507 -11.96202483 0 0 Z " fill="#FBFBFB" transform="translate(734.9697265625,68.701904296875)"/>
<path d="M0 0 C3.53930169 0.24320891 5.20493179 0.9626729 8.2043457 2.79345703 C9.13891602 3.35299072 10.07348633 3.91252441 11.03637695 4.48901367 C12.03411133 5.10252686 13.0318457 5.71604004 14.05981445 6.34814453 C16.22139912 7.64307794 18.38419764 8.93598689 20.5480957 10.22705078 C21.65749512 10.89236816 22.76689453 11.55768555 23.90991211 12.24316406 C29.13978591 15.34589095 34.43770509 18.32205406 39.74731445 21.28564453 C40.76970215 21.85951904 41.79208984 22.43339355 42.84545898 23.0246582 C48.17649037 26.004158 53.5351115 28.91550854 58.9465332 31.74658203 C60.03450195 32.32013428 61.1224707 32.89368652 62.2434082 33.48461914 C64.30814113 34.56895142 66.37941636 35.64095447 68.45825195 36.69799805 C74.07752817 39.65441553 79.28738941 42.40037237 82.24731445 48.22314453 C83.66960037 53.00628782 84.43359813 57.86228285 85.18481445 62.78564453 C85.42422646 64.23407686 85.66631235 65.68206942 85.91088867 67.12963867 C86.42990338 70.21051951 86.93861108 73.29285788 87.44116211 76.37646484 C88.66988684 83.84349073 90.04791059 91.28349156 91.4236145 98.72457886 C91.85795666 101.08269371 92.28564544 103.44192781 92.71191406 105.80151367 C92.98601784 107.30546943 93.26083022 108.80929623 93.53637695 110.31298828 C93.6698201 111.04298538 93.80326324 111.77298248 93.94075012 112.52510071 C94.66690464 116.4094519 95.47210615 120.26098329 96.38305664 124.10644531 C96.57217621 124.91134903 96.76129578 125.71625275 96.95614624 126.54554749 C97.32079223 128.07554892 97.69620894 129.60304164 98.08462524 131.12718201 C99.21817573 135.87254764 99.2242048 139.43324323 98.24731445 144.22314453 C94.25691961 145.15738392 92.06690123 145.64344544 88.3527832 143.73876953 C87.38985352 142.99111328 86.42692383 142.24345703 85.43481445 141.47314453 C84.29128037 140.61934144 83.14393644 139.77062414 81.9934082 138.92626953 C81.38609863 138.47832031 80.77878906 138.03037109 80.15307617 137.56884766 C76.88486146 135.26108446 73.43666758 133.26273406 69.99731445 131.22314453 C62.27591209 126.58086004 54.7707879 121.64728923 47.30981445 116.59814453 C46.28017578 115.90591797 45.25053711 115.21369141 44.18969727 114.50048828 C29.29610486 104.35078086 15.72795178 93.9884314 8.24731445 77.22314453 C8.24731445 76.56314453 8.24731445 75.90314453 8.24731445 75.22314453 C17.15731445 74.89314453 26.06731445 74.56314453 35.24731445 74.22314453 C35.24731445 71.58314453 35.24731445 68.94314453 35.24731445 66.22314453 C31.71166982 63.86604811 30.0270619 63.92304718 25.8293457 63.80908203 C24.57573242 63.77041016 23.32211914 63.73173828 22.03051758 63.69189453 C20.72018555 63.66095703 19.40985352 63.63001953 18.05981445 63.59814453 C16.72450285 63.55995116 15.38921553 63.52089862 14.05395508 63.48095703 C10.78521557 63.386553 7.51648381 63.30097436 4.24731445 63.22314453 C1.28139719 49.58358673 -1.2386243 35.92550944 -3.12768555 22.09814453 C-3.3071875 20.82503418 -3.48668945 19.55192383 -3.67163086 18.24023438 C-5.15790578 6.92668547 -5.15790578 6.92668547 -3.75268555 1.22314453 C-2.75268555 0.22314453 -2.75268555 0.22314453 0 0 Z " fill="#FBFBFB" transform="translate(607.752685546875,114.77685546875)"/>
<path d="M0 0 C2.09307627 0.79345105 4.18620076 1.58677322 6.2795105 2.37960815 C7.67155839 2.90689933 9.06342522 3.43466877 10.45510864 3.96292114 C20.15505874 7.63776871 29.82726382 10.91958684 39.90380859 13.40966797 C41.90997321 13.93199775 43.88096225 14.52576644 45.859375 15.14453125 C55.30940186 18.05875441 64.86848857 19.99237904 74.62109375 21.609375 C75.6039032 21.77280899 75.6039032 21.77280899 76.60656738 21.93954468 C84.14840577 23.16703642 91.62150959 24.06381601 99.2578125 24.3984375 C99.93774261 24.43054825 100.61767273 24.462659 101.31820679 24.4957428 C104.57274888 24.64213049 107.81722749 24.73816635 111.07519531 24.76245117 C117.21561329 24.96433836 120.98603114 25.29315275 125.4375 29.75390625 C126.59895766 31.12911025 127.74579137 32.51693212 128.87109375 33.921875 C131.01530406 35.82122179 133.1954011 37.65159069 135.40234375 39.4765625 C135.88703125 39.95351563 136.37171875 40.43046875 136.87109375 40.921875 C136.87109375 41.581875 136.87109375 42.241875 136.87109375 42.921875 C118.11363043 46.00220609 99.42914187 43.03732865 80.87109375 39.921875 C80.08976074 39.79409668 79.30842773 39.66631836 78.50341797 39.53466797 C67.049547 37.6242991 55.9809097 34.22925549 44.87109375 30.921875 C43.28893066 30.45418701 43.28893066 30.45418701 41.67480469 29.97705078 C29.23403528 26.29715624 16.81938049 22.55181356 4.453125 18.62890625 C-22.98663512 9.9030332 -22.98663512 9.9030332 -51.12890625 3.921875 C-52.32515625 3.72464844 -53.52140625 3.52742188 -54.75390625 3.32421875 C-72.73715825 1.180382 -90.219402 4.2686733 -105.12890625 14.921875 C-124.46611948 30.16373 -128.70368834 58.24983668 -133.12890625 80.921875 C-136.51957779 80.36319943 -139.14357795 79.57194256 -142.1171875 77.85546875 C-142.82294922 77.45263672 -143.52871094 77.04980469 -144.25585938 76.63476562 C-144.97708984 76.21388672 -145.69832031 75.79300781 -146.44140625 75.359375 C-147.55225586 74.72225586 -147.55225586 74.72225586 -148.68554688 74.07226562 C-150.50358743 73.02835847 -152.31674373 71.97595308 -154.12890625 70.921875 C-150.72065981 44.28270745 -139.11388789 17.74670483 -118.10546875 0.4296875 C-81.05387064 -26.74148445 -39.49959162 -14.97587059 0 0 Z " fill="#050505" transform="translate(528.12890625,232.078125)"/>
<path d="M0 0 C7.15168515 0.49895478 13.41291281 3.31563815 20 6 C19.04987083 16.43891917 17.64821708 26.09769648 14 36 C13.64035156 36.99386719 13.28070312 37.98773438 12.91015625 39.01171875 C8.15882723 51.24999046 1.25181256 61.71708892 -8 71 C-8.73605469 71.75925781 -9.47210937 72.51851563 -10.23046875 73.30078125 C-26.46258641 89.04348832 -49.72012359 97.08324698 -72 98 C-73.11632812 98.05285156 -74.23265625 98.10570312 -75.3828125 98.16015625 C-99.08746916 98.74893282 -121.3831766 92.22892718 -142.12353516 81.00732422 C-144.00048025 79.99974219 -145.89283184 79.02943574 -147.79296875 78.06640625 C-154.85125231 74.45466074 -161.47289453 70.46139793 -168.02368164 65.99926758 C-188.9591954 51.80391536 -210.78470399 39.24027436 -236.36328125 36.5546875 C-239.34094453 35.92827537 -240.84656648 35.13837455 -243 33 C-243.5 29.5 -243.5 29.5 -243 26 C-240.87382126 23.87870903 -239.48780625 23.07811026 -236.51171875 22.6015625 C-207.66311163 22.84097003 -183.14600683 36.74910499 -159 51.0625 C-142.16713049 61.01889341 -124.88052876 69.68762593 -106 75 C-105.02909424 75.27626221 -105.02909424 75.27626221 -104.03857422 75.55810547 C-81.65550571 81.56924273 -56.60288028 79.57825756 -36.27246094 68.35205078 C-18.71195974 57.92698876 -9.34987209 42.10782329 -4.10546875 22.6875 C-2.27801952 15.19765884 -1.06175651 7.63215563 0 0 Z " fill="#040404" transform="translate(529,261)"/>
<path d="M0 0 C0.21844483 5.17979039 -0.4350427 9.18259669 -2.0625 14.09375 C-2.39531982 15.11281433 -2.39531982 15.11281433 -2.73486328 16.15246582 C-3.22189359 17.64110408 -3.71328946 19.12831946 -4.20849609 20.61425781 C-5.03501056 23.10552843 -5.84177766 25.6025393 -6.64453125 28.1015625 C-8.10589632 32.6445108 -9.58976856 37.17967274 -11.08398438 41.71191406 C-11.69891032 43.58357033 -12.30953215 45.45664574 -12.91601562 47.33105469 C-13.80880094 50.08874809 -14.71542815 52.84155433 -15.625 55.59375 C-16.02211182 56.83457336 -16.02211182 56.83457336 -16.42724609 58.10046387 C-21.12444348 72.14399368 -30.46360486 79.67217737 -42.625 87.5 C-44.47916703 88.71546337 -46.33198273 89.93299015 -48.18359375 91.15234375 C-49.61421143 92.09376221 -49.61421143 92.09376221 -51.07373047 93.05419922 C-55.9910814 96.32395451 -60.84174035 99.68788326 -65.6875 103.0625 C-66.64342041 103.72644775 -67.59934082 104.39039551 -68.58422852 105.07446289 C-73.18127747 108.28129583 -77.74109876 111.52678907 -82.2421875 114.8671875 C-83.05856689 115.47038818 -83.87494629 116.07358887 -84.71606445 116.69506836 C-86.23256623 117.82120229 -87.7420829 118.95683191 -89.24291992 120.10375977 C-93.1454191 123.00322568 -95.98693628 124.694993 -101 125 C-102.10859074 121.68695396 -101.88194244 119.75662762 -100.8125 116.45703125 C-100.52938965 115.56024658 -100.2462793 114.66346191 -99.95458984 113.73950195 C-99.6395752 112.77359131 -99.32456055 111.80768066 -99 110.8125 C-98.34354518 108.74047118 -97.69000112 106.66751838 -97.0390625 104.59375 C-96.53101074 102.97533203 -96.53101074 102.97533203 -96.01269531 101.32421875 C-94.67226267 96.92418719 -93.46068428 92.49386325 -92.25561523 88.05517578 C-85.10623282 61.7291161 -74.64312665 49.06999592 -52.28076172 33.59130859 C-48.50902882 30.95973558 -44.78604138 28.26163085 -41.0625 25.5625 C-40.32330322 25.02778076 -39.58410645 24.49306152 -38.82250977 23.94213867 C-34.93876486 21.13194927 -31.05878013 18.31660619 -27.1796875 15.5 C-26.38554443 14.92435303 -25.59140137 14.34870605 -24.77319336 13.75561523 C-23.27291898 12.66808489 -21.77364537 11.57917185 -20.27563477 10.48852539 C-18.19276483 8.97930151 -16.09787867 7.48827174 -14 6 C-13.22414551 5.43522949 -12.44829102 4.87045898 -11.64892578 4.28857422 C-10.86888184 3.73830566 -10.08883789 3.18803711 -9.28515625 2.62109375 C-8.58398682 2.11892334 -7.88281738 1.61675293 -7.16040039 1.09936523 C-4.60402189 -0.2015018 -2.83064789 -0.20773977 0 0 Z " fill="#FAFAFA" transform="translate(233,350)"/>
<path d="M0 0 C1.54426501 0.01005296 3.08853638 0.01917471 4.6328125 0.02734375 C8.38049734 0.04744936 12.12728193 0.08662746 15.875 0.125 C16.37 7.055 16.37 7.055 16.875 14.125 C13.73097656 14.18107422 13.73097656 14.18107422 10.5234375 14.23828125 C8.47792539 14.28458461 6.43258992 14.33578579 4.38720703 14.38745117 C2.9732551 14.42056291 1.55917536 14.44863716 0.14501953 14.47143555 C-1.89605823 14.50523775 -3.93597928 14.55755964 -5.9765625 14.61328125 C-7.20197754 14.63946533 -8.42739258 14.66564941 -9.68994141 14.69262695 C-14.28592777 15.27112673 -17.74940651 16.654538 -20.9375 20.0625 C-26.22120348 29.23945868 -22.36913602 42.04041772 -20.67138672 51.82080078 C-20.24996302 54.25021318 -19.84077797 56.68144578 -19.43359375 59.11328125 C-19.16737702 60.68241235 -18.90047327 62.25142708 -18.6328125 63.8203125 C-18.5118924 64.53510773 -18.39097229 65.24990295 -18.26638794 65.98635864 C-17.66025588 69.46160735 -16.96178857 72.87646775 -16.08398438 76.29394531 C-15.29115926 79.46120897 -14.6947611 82.49562924 -14.2734375 85.7265625 C-14.14453125 86.71140625 -14.015625 87.69625 -13.8828125 88.7109375 C-13.69332031 90.21527344 -13.69332031 90.21527344 -13.5 91.75 C-13.3659375 92.760625 -13.231875 93.77125 -13.09375 94.8125 C-12.47649461 99.6119756 -11.9428862 104.2741505 -12.125 109.125 C-28.50068388 106.64466226 -28.50068388 106.64466226 -34.125 102.125 C-37.3999916 96.95128361 -37.52428832 90.44342007 -38.0625 84.5 C-38.26341286 82.89367006 -38.47104846 81.28816605 -38.68554688 79.68359375 C-39.18086548 75.84253446 -39.5853562 72.000296 -39.93948364 68.14382935 C-40.10164595 66.37914391 -40.28072762 64.61602979 -40.46264648 62.85327148 C-41.18231761 55.39697583 -41.31120745 47.95778806 -41.31030273 40.46948242 C-41.31250885 38.42931824 -41.33080801 36.38968007 -41.34960938 34.34960938 C-41.36482231 23.99974199 -41.13234134 14.34371683 -34.125 6.125 C-24.25175683 -1.23153413 -11.73624274 -0.13371042 0 0 Z " fill="#050505" transform="translate(561.125,118.875)"/>
<path d="M0 0 C4.27524337 0.04588812 6.08864937 1.65625032 9.0625 4.625 C10.56527513 6.27041141 12.0458405 7.93647047 13.5 9.625 C14.03882813 10.23601562 14.57765625 10.84703125 15.1328125 11.4765625 C16.21651846 12.7127497 17.29279527 13.95547234 18.36328125 15.203125 C21.30020749 18.53199935 24.33846241 21.76209413 27.375 25 C32.04322919 29.98042198 36.6640125 34.99406269 41.2109375 40.0859375 C44.51887647 43.75515308 47.88179702 47.37322384 51.25244141 50.98486328 C60.37110793 60.80331303 60.37110793 60.80331303 61 64.8125 C60.5 67.625 60.5 67.625 59.4375 69.5625 C57.5 70.625 57.5 70.625 54.3125 70.8125 C48.88644521 69.12241736 46.18292795 65.82560858 42.5 61.625 C41.98179687 61.0371875 41.46359375 60.449375 40.9296875 59.84375 C39.83530495 58.58988457 38.7459054 57.33166117 37.66015625 56.0703125 C34.77229372 52.80123123 31.7940447 49.62105399 28.8125 46.4375 C27.90951172 45.47275757 27.90951172 45.47275757 26.98828125 44.48852539 C25.76294853 43.17960282 24.53752514 41.87076511 23.31201172 40.56201172 C20.4924832 37.54798056 17.68060333 34.5269943 14.875 31.5 C14.39071533 30.98026611 13.90643066 30.46053223 13.4074707 29.92504883 C10.63027631 26.92446396 8.04310289 23.82438751 5.5 20.625 C4.695625 19.820625 3.89125 19.01625 3.0625 18.1875 C-4.8125 10.3125 -4.8125 10.3125 -4.875 5.3125 C-4.41491985 0.78837855 -4.41491985 0.78837855 0 0 Z " fill="#070707" transform="translate(422.5,253.375)"/>
<path d="M0 0 C6.68412752 3.63566563 13.35556707 7.29224236 20 11 C17.71509527 26.48657653 11.26935744 40.83346465 3 54 C-0.327182 50.71984531 -3.51918974 47.36503421 -6.625 43.875 C-9.56268257 40.51662159 -9.56268257 40.51662159 -12.8359375 37.5078125 C-14 36 -14 36 -13.921875 33.80859375 C-12.6882102 30.05009802 -11.00286936 26.60302422 -9.25 23.0625 C-5.6001863 15.52737429 -2.62086513 7.95079758 0 0 Z " fill="#050505" transform="translate(366,343)"/>
<path d="M0 0 C0.80355927 -0.00525696 1.60711853 -0.01051392 2.43502808 -0.01593018 C5.09433365 -0.02914612 7.75304173 -0.02038579 10.41235352 -0.01025391 C12.25936498 -0.01227439 14.10637567 -0.01518561 15.9533844 -0.01895142 C19.82625923 -0.02337709 23.69892661 -0.01693664 27.57177734 -0.00292969 C32.53638725 0.01415039 37.50051021 0.00433005 42.4651022 -0.01364708 C46.28009203 -0.02448856 50.09496648 -0.02103669 53.90995979 -0.0132637 C55.74039836 -0.01126208 57.57084739 -0.01371964 59.40127373 -0.02070236 C61.96050626 -0.02832151 64.51895112 -0.01670592 67.078125 0 C67.83514206 -0.00607269 68.59215912 -0.01214539 69.37211609 -0.0184021 C72.54701623 0.01999179 74.77109475 0.20396308 77.57411194 1.75619507 C79.10375977 3.38818359 79.10375977 3.38818359 79.60375977 5.88818359 C79.10375977 8.38818359 79.10375977 8.38818359 77.56738281 10.02017212 C74.15242312 11.91644601 70.99065281 11.8073361 67.18579102 11.77636719 C65.99486343 11.78425262 65.99486343 11.78425262 64.77987671 11.79229736 C62.15847026 11.8054887 59.53767227 11.79676252 56.91625977 11.78662109 C55.09309777 11.78864208 53.26993657 11.79155373 51.44677734 11.7953186 C47.62695616 11.79974078 43.80734553 11.79331434 39.98754883 11.77929688 C35.09134665 11.76220503 30.19563781 11.77204679 25.29945374 11.79001427 C21.53507775 11.80085499 17.77081872 11.79740444 14.00643921 11.78963089 C12.20112042 11.78762968 10.39579101 11.79008538 8.59048462 11.79706955 C6.0672798 11.8046888 3.54487384 11.79307358 1.02172852 11.77636719 C0.27563324 11.78243988 -0.47046204 11.78851257 -1.23916626 11.79476929 C-4.39134969 11.75610518 -6.58212174 11.56233257 -9.36376953 10.02017212 C-10.89624023 8.38818359 -10.89624023 8.38818359 -11.33374023 5.88818359 C-10.89624023 3.38818359 -10.89624023 3.38818359 -9.8624115 1.75619507 C-6.80357655 -0.37206374 -3.59520283 -0.02876334 0 0 Z " fill="#030303" transform="translate(120.896240234375,323.61181640625)"/>
<path d="M0 0 C0.70602356 -0.00350464 1.41204712 -0.00700928 2.13946533 -0.01062012 C4.47401759 -0.01942455 6.8082669 -0.01359231 9.14282227 -0.00683594 C10.76563068 -0.00818311 12.3884387 -0.01012408 14.01124573 -0.01263428 C17.41329794 -0.01558392 20.81524515 -0.01129363 24.21728516 -0.00195312 C28.57647038 0.00943228 32.93540908 0.00288678 37.29458523 -0.00909805 C40.64632521 -0.01632874 43.99800686 -0.01402301 47.34974861 -0.00884247 C48.95689994 -0.00750885 50.56405657 -0.00914364 52.17120171 -0.01380157 C54.41896439 -0.01888568 56.66632939 -0.01112992 58.9140625 0 C60.1929686 0.00159119 61.47187469 0.00318237 62.78953552 0.00482178 C65.83840556 0.24438459 67.58015523 0.4459153 70.02172852 2.25878906 C70.95922852 5.69628906 70.95922852 5.69628906 71.02172852 9.25878906 C69.97325134 10.95718384 69.97325134 10.95718384 68.02172852 12.25878906 C64.84059143 12.63973999 64.84059143 12.63973999 60.85986328 12.64697266 C59.77156723 12.65485809 59.77156723 12.65485809 58.6612854 12.66290283 C56.26168317 12.67611209 53.86274382 12.66736096 51.46313477 12.65722656 C49.79548515 12.65924726 48.1278364 12.66215867 46.46018982 12.66592407 C42.96393425 12.67034885 39.46790855 12.66391237 35.97167969 12.64990234 C31.49132484 12.63282348 27.01150963 12.64264221 22.53117466 12.66061974 C19.08676596 12.67146482 15.642485 12.6680077 12.19807243 12.66023636 C10.54626336 12.65823566 8.89444268 12.66068906 7.24264717 12.66767502 C4.93244894 12.67530009 2.62312171 12.6636708 0.31298828 12.64697266 C-1.0014476 12.64458588 -2.31588348 12.6421991 -3.67015076 12.63973999 C-7.11968171 12.24250479 -8.50392533 11.62328869 -10.97827148 9.25878906 C-10.66577148 5.88378906 -10.66577148 5.88378906 -9.97827148 2.25878906 C-6.27645777 -0.20908674 -4.41942491 0.00550197 0 0 Z " fill="#0C0C0C" transform="translate(203.978271484375,283.7412109375)"/>
<path d="M0 0 C0.7361554 0.00090637 1.47231079 0.00181274 2.23077393 0.00274658 C3.00653275 -0.00397064 3.78229156 -0.01068787 4.58155823 -0.01760864 C7.15357821 -0.03665288 9.72533817 -0.04051597 12.29742432 -0.04266357 C14.08099985 -0.0490868 15.8645743 -0.0558148 17.64814758 -0.06283569 C21.38990727 -0.07482437 25.13157451 -0.07851486 28.87335205 -0.07733154 C33.6733773 -0.07712821 38.47281144 -0.10443802 43.2726965 -0.13887596 C46.95724726 -0.16108822 50.64165446 -0.16517084 54.32626534 -0.16411209 C56.09614666 -0.16647633 57.86603146 -0.1753459 59.63584709 -0.19077682 C62.10931954 -0.21032385 64.58150043 -0.20464431 67.05499268 -0.19256592 C67.78912384 -0.20380493 68.523255 -0.21504395 69.27963257 -0.22662354 C72.55002503 -0.18594051 74.26036372 -0.12696787 76.69367981 2.15957642 C77.70758057 4.29327393 77.70758057 4.29327393 77.58258057 6.91827393 C76.70758057 9.29327393 76.70758057 9.29327393 73.70758057 11.29327393 C71.19218397 11.49742428 68.78655951 11.58700313 66.27032471 11.58380127 C65.13813759 11.59387711 65.13813759 11.59387711 63.983078 11.60415649 C61.48623078 11.62316537 58.9896519 11.62706199 56.49273682 11.62921143 C54.75782663 11.63563692 53.02291754 11.64236509 51.28800964 11.64938354 C47.65057869 11.66136322 44.01324275 11.66506362 40.37579346 11.66387939 C35.71377164 11.66367607 31.05235848 11.69098918 26.390481 11.72542381 C22.80711566 11.74765507 19.22389775 11.75171812 15.6404705 11.75065994 C13.92165464 11.75302118 12.20283503 11.76187406 10.48408699 11.77732468 C8.08036714 11.79691082 5.67797192 11.79117687 3.27423096 11.77911377 C2.56396759 11.79035278 1.85370422 11.8015918 1.12191772 11.81317139 C-2.27174433 11.76986983 -4.02829625 11.4919792 -6.77314758 9.42697144 C-8.29241943 7.29327393 -8.29241943 7.29327393 -8.16741943 4.66827393 C-6.50105662 0.14528916 -4.51958143 0.05740765 0 0 Z " fill="#060606" transform="translate(494.29241943359375,91.70672607421875)"/>
<path d="M0 0 C10.67256757 0.02050445 20.04715554 0.98889716 30.1706543 4.38037109 C31.1896582 4.7177832 31.1896582 4.7177832 32.22924805 5.06201172 C55.37931008 12.88647403 55.37931008 12.88647403 62.1706543 20.38037109 C62.7331543 23.44287109 62.7331543 23.44287109 62.1706543 26.38037109 C60.13442422 28.64284895 58.87683278 29.299256 55.8581543 29.64599609 C52.46748004 29.31087131 50.7040052 28.11503604 47.8581543 26.25537109 C33.45411974 17.50310409 17.28604171 13.38241933 0.57958984 12.20166016 C-0.20633545 12.13688477 -0.99226074 12.07210938 -1.80200195 12.00537109 C-2.85786499 11.93189453 -2.85786499 11.93189453 -3.93505859 11.85693359 C-6.36292159 11.24613471 -7.31581793 10.35294108 -8.8293457 8.38037109 C-9.1418457 5.31787109 -9.1418457 5.31787109 -8.8293457 2.38037109 C-6.00265307 -0.44632154 -3.86971028 0.06606203 0 0 Z " fill="#070707" transform="translate(289.829345703125,321.61962890625)"/>
<path d="M0 0 C2.54099051 1.65845535 4.46923957 3.76070482 6.5 6 C7.34473877 6.88824463 7.34473877 6.88824463 8.20654297 7.79443359 C11.77884878 11.57705697 15.27972883 15.43553317 18.6328125 19.4140625 C19.99764462 21.05203005 19.99764462 21.05203005 21.6796875 22.5859375 C23 24 23 24 23 26 C23.99 26.33 24.98 26.66 26 27 C27.80994705 28.79620062 29.38394726 30.73590462 31.015625 32.6953125 C32.97661881 35.04029217 32.97661881 35.04029217 35.234375 37.1796875 C40.76350858 42.68921422 40.76350858 42.68921422 41.50390625 46.79296875 C41.50044216 49.2490088 41.36478991 51.57313376 41 54 C37.70584664 54.68369221 36.18651497 54.89683362 33 54 C28.87576383 50.73006989 25.47756473 46.93983919 22 43 C21.39414062 42.32195312 20.78828125 41.64390625 20.1640625 40.9453125 C19.07749148 39.71033179 18.00093854 38.46647829 16.93359375 37.21484375 C14.90057614 34.88611449 12.80507931 32.62737911 10.69506836 30.36865234 C4.85244539 24.11265767 -0.67125275 17.70390783 -6 11 C-6.74507813 10.12859375 -7.49015625 9.2571875 -8.2578125 8.359375 C-10 6 -10 6 -9.875 3.25 C-8.13582637 -1.22216075 -4.24415902 -0.49105972 0 0 Z " fill="#070707" transform="translate(460,250)"/>
<path d="M0 0 C1.27141846 -0.00945648 2.54283691 -0.01891296 3.8527832 -0.02865601 C5.24170238 -0.02328631 6.63061873 -0.01713337 8.01953125 -0.01025391 C9.44295399 -0.01227479 10.86637572 -0.01518636 12.28979492 -0.01895142 C15.27239849 -0.02337412 18.25473246 -0.01694576 21.23730469 -0.00292969 C25.06088216 0.01416256 28.88382791 0.00432104 32.7073822 -0.01364708 C35.64649212 -0.02448659 38.58545222 -0.0210379 41.52456665 -0.0132637 C42.93437779 -0.01126214 44.34420253 -0.01371947 45.7539978 -0.02070236 C47.72401673 -0.02831864 49.69408334 -0.0146522 51.6640625 0 C52.78530518 0.00238678 53.90654785 0.00477356 55.06176758 0.00723267 C57.83203125 0.38818359 57.83203125 0.38818359 59.6940918 1.72494507 C61.47239115 4.32414837 61.21411302 6.33152946 60.83203125 9.38818359 C59.6940918 11.05241394 59.6940918 11.05241394 57.83203125 12.38818359 C55.06176758 12.7624054 55.06176758 12.7624054 51.6640625 12.76049805 C50.39264404 12.76672684 49.12122559 12.77295563 47.8112793 12.77937317 C46.4223593 12.77068508 45.03344312 12.76136709 43.64453125 12.75146484 C42.22111003 12.75094618 40.79768809 12.75146414 39.37426758 12.75297546 C36.39165548 12.75288576 33.4093138 12.74246081 30.42675781 12.72436523 C26.6032832 12.70167791 22.7802037 12.7011341 18.9566803 12.70788288 C16.01758308 12.71122412 13.07857598 12.70458989 10.13949585 12.69475365 C8.72969026 12.69090401 7.31987465 12.68975245 5.9100647 12.69133949 C3.94002026 12.69171027 1.9699891 12.6776111 0 12.6628418 C-1.68186401 12.65593071 -1.68186401 12.65593071 -3.39770508 12.64888 C-6.16796875 12.38818359 -6.16796875 12.38818359 -9.16796875 10.38818359 C-9.82467941 4.36833588 -9.82467941 4.36833588 -8.0300293 1.68978882 C-5.33461335 -0.19434297 -3.26990384 0.00696062 0 0 Z " fill="#060606" transform="translate(440.16796875,137.61181640625)"/>
<path d="M0 0 C4.54783707 0.12191769 7.68751989 1.92737096 11.37890625 4.44140625 C16.53483613 7.74188108 21.68882418 10.69623824 27.25390625 13.25390625 C27.88361328 13.54612061 28.51332031 13.83833496 29.16210938 14.1394043 C32.3569483 15.59094653 35.51180195 16.78090272 38.87890625 17.75390625 C43.1380973 19.76734202 44.49630064 21.98257543 46.86328125 25.94921875 C49.06814029 29.6358379 51.71245206 32.96976817 54.31640625 36.37890625 C45.48253461 34.61676679 37.46265592 32.13949209 29.25390625 28.44140625 C28.18769043 27.96703125 27.12147461 27.49265625 26.02294922 27.00390625 C-0.35389664 14.97553064 -0.35389664 14.97553064 -6.68359375 7.37890625 C-6.31371787 2.32393589 -5.21347573 0.53627481 0 0 Z " fill="#080808" transform="translate(571.68359375,207.62109375)"/>
<path d="M0 0 C1.51188148 -0.01429802 1.51188148 -0.01429802 3.05430603 -0.02888489 C4.1418367 -0.02797348 5.22936737 -0.02706207 6.34985352 -0.02612305 C7.46812027 -0.03040817 8.58638702 -0.0346933 9.73854065 -0.03910828 C12.10482099 -0.0448544 14.471119 -0.04534977 16.83740234 -0.04101562 C20.46099953 -0.03785728 24.08377929 -0.06130668 27.70727539 -0.08666992 C30.0048004 -0.088943 32.30232761 -0.08964637 34.59985352 -0.08862305 C35.68535995 -0.09783279 36.77086639 -0.10704254 37.88926697 -0.11653137 C39.40587669 -0.10718819 39.40587669 -0.10718819 40.953125 -0.09765625 C41.84120346 -0.09828568 42.72928192 -0.0989151 43.64427185 -0.0995636 C46.56080757 0.35577088 47.93480576 1.22846418 50.04125977 3.2746582 C50.54125977 6.2746582 50.54125977 6.2746582 50.04125977 9.2746582 C47.10712778 12.12150587 44.99504983 12.65198459 40.96899414 12.6628418 C39.96114868 12.67229828 38.95330322 12.68175476 37.91491699 12.6914978 C36.83254761 12.68542511 35.75017822 12.67935242 34.63500977 12.6730957 C32.95973206 12.67740097 32.95973206 12.67740097 31.25061035 12.68179321 C28.89029432 12.68383387 26.52996138 12.67830396 24.16967773 12.66577148 C20.55487283 12.64971866 16.9411861 12.66562098 13.32641602 12.68481445 C11.0334448 12.68283202 8.74047427 12.67898835 6.44750977 12.6730957 C4.82395569 12.68220474 4.82395569 12.68220474 3.16760254 12.6914978 C2.15975708 12.68204132 1.15191162 12.67258484 0.11352539 12.6628418 C-0.77153687 12.66045502 -1.65659912 12.65806824 -2.56848145 12.65560913 C-5.41583464 12.20180813 -6.81467494 11.15470037 -8.95874023 9.2746582 C-8.64624023 5.8996582 -8.64624023 5.8996582 -7.95874023 2.2746582 C-4.70313371 0.10425385 -3.76715623 0.0195617 0 0 Z " fill="#0E0E0E" transform="translate(82.958740234375,376.725341796875)"/>
<path d="M0 0 C1.29474243 -0.00630432 2.58948486 -0.01260864 3.92346191 -0.019104 C5.34285619 -0.01552433 6.76224924 -0.0114224 8.18164062 -0.00683594 C9.63130763 -0.00818263 11.08097419 -0.0101232 12.53063965 -0.01263428 C15.57043758 -0.01558536 18.61011805 -0.0112885 21.64990234 -0.00195312 C25.55083311 0.0094415 29.4514887 0.00288193 33.35240936 -0.00909805 C36.346355 -0.01631715 39.34023515 -0.01402852 42.33418274 -0.00884247 C43.77273084 -0.0075061 45.21128484 -0.00915324 46.64982605 -0.01380157 C48.65847666 -0.01886734 50.66714806 -0.00978038 52.67578125 0 C53.82002563 0.00159119 54.96427002 0.00318237 56.14318848 0.00482178 C58.83789062 0.25878906 58.83789062 0.25878906 60.83789062 2.25878906 C61.18955811 5.00179543 61.30345317 6.58619837 59.70484924 8.89567566 C57.00758361 10.86501708 54.97216233 10.63296119 51.65405273 10.63110352 C50.37940659 10.63733231 49.10476044 10.6435611 47.79148865 10.64997864 C46.39939991 10.64129148 45.00731499 10.6319736 43.61523438 10.62207031 C42.18941753 10.6215517 40.76359996 10.62206945 39.33778381 10.62358093 C36.35097568 10.62349124 33.36443765 10.61306699 30.37768555 10.5949707 C26.54514474 10.57226282 22.71299788 10.57174336 18.88040829 10.57848835 C15.93706242 10.5818259 12.99380675 10.57520268 10.05047798 10.56535912 C8.63705479 10.56150466 7.22362157 10.56035992 5.81019402 10.56194496 C3.83755117 10.56231486 1.86492144 10.54823517 -0.10766602 10.53344727 C-1.2311293 10.52883987 -2.35459259 10.52423248 -3.51210022 10.51948547 C-6.16210938 10.25878906 -6.16210938 10.25878906 -8.16210938 8.25878906 C-8.41210938 5.25878906 -8.41210938 5.25878906 -8.16210938 2.25878906 C-5.41199338 -0.49132693 -3.85024996 0.00535416 0 0 Z " fill="#020202" transform="translate(109.162109375,546.7412109375)"/>
<path d="M0 0 C2.86466214 0.0677102 4.05137626 0.27200694 6.625 1.6875 C8.125 3.3125 8.125 3.3125 8.125 5.3125 C9.445 5.9725 10.765 6.6325 12.125 7.3125 C12.125 7.9725 12.125 8.6325 12.125 9.3125 C12.67929687 9.5290625 13.23359375 9.745625 13.8046875 9.96875 C16.86802533 11.74280423 18.94737279 14.17834377 21.25 16.8125 C24.08423762 20.01713466 26.89598035 23.16872772 30.06640625 26.046875 C36.82727325 32.24032926 36.82727325 32.24032926 37.78125 35.67578125 C37.8125 37.875 37.8125 37.875 37.125 41.3125 C36.125 42.3125 36.125 42.3125 33.1875 42.9375 C29.23745225 42.8617675 27.48045867 41.17524048 24.65625 38.53125 C23.77912354 37.71350098 22.90199707 36.89575195 21.99829102 36.05322266 C21.05010498 35.14878418 20.10191895 34.2443457 19.125 33.3125 C18.62853973 32.84318054 18.13207947 32.37386108 17.62057495 31.89031982 C14.43831462 28.88079508 11.29231369 25.83746565 8.17163086 22.76416016 C7.08884819 21.703227 5.9998341 20.64862039 4.9050293 19.60009766 C3.29563627 18.05765347 1.70687427 16.49635389 0.12109375 14.9296875 C-0.81549072 14.01815918 -1.7520752 13.10663086 -2.71704102 12.16748047 C-5.27976007 8.77700229 -5.79411992 6.53274084 -5.875 2.3125 C-3.875 0.3125 -3.875 0.3125 0 0 Z " fill="#070707" transform="translate(413.875,288.6875)"/>
<path d="M0 0 C4.76328612 -1.13872309 9.33774401 -1.70866319 14 0 C19.5327374 4.01674442 23.86415848 9.48999332 28.14990234 14.76733398 C30.00239279 17.00288758 31.95939797 19.10208279 33.94140625 21.22265625 C36.07443727 23.64965981 36.93729922 24.74408542 37.71875 27.93359375 C37.61046875 29.17302734 37.61046875 29.17302734 37.5 30.4375 C37.4484375 31.28183594 37.396875 32.12617188 37.34375 32.99609375 C37 35 37 35 36 36 C33.25 36.375 33.25 36.375 30 36 C26.14842136 32.80600796 23.19697794 28.83637353 20 25 C18.33478703 23.3318809 16.66784577 21.66548673 15 20 C12.75071554 17.64360676 10.53026149 15.26104011 8.3125 12.875 C7.73177734 12.25496094 7.15105469 11.63492187 6.55273438 10.99609375 C5.99521484 10.39667969 5.43769531 9.79726563 4.86328125 9.1796875 C4.36094971 8.64069824 3.85861816 8.10170898 3.34106445 7.54638672 C1.06288281 4.91940647 0 3.53860451 0 0 Z " fill="#060606" transform="translate(483,249)"/>
<path d="M0 0 C4.77159064 2.38579532 8.12070941 5.51169409 11 10 C11.62564723 13.12823614 11.6534194 15.87546724 11 19 C8.80168636 22.03215675 7.55036806 22.81654398 4 24 C-1.72719196 24.54030113 -4.55882194 23.6516353 -9 20 C-12.54253198 16.55321213 -13.65813738 13.73659976 -14.0390625 8.9296875 C-13.98409127 6.21410876 -13.37299676 4.33409448 -12 2 C-7.9499485 -0.70003434 -4.75577553 -0.65259355 0 0 Z " fill="#060606" transform="translate(272,491)"/>
<path d="M0 0 C5.03895783 2.4582274 10.0499965 5.53999019 12 11 C12.60783404 14.88857928 12.62398884 17.98601813 10.5 21.4375 C7.08702128 23.5706117 3.96974186 24.30479291 0 24 C-5.42766343 22.20194689 -8.68394565 18.48642647 -12 14 C-13.61028119 10.77943762 -13.59198765 7.4830901 -13 4 C-9.54014696 -0.32481629 -5.28251114 -1.25236004 0 0 Z " fill="#060606" transform="translate(260,408)"/>
<path d="M0 0 C3.6063014 2.21008744 6.24545364 4.8053016 8.5 8.375 C9.41207603 13.16339915 9.00526535 17.25171243 6.5625 21.5 C2.46464157 23.8987464 -1.39051699 23.94880295 -6 23 C-10.24505366 20.59421091 -13.14810863 17.52588405 -15 13 C-15.66002845 6.06970128 -15.66002845 6.06970128 -13.1875 2.0625 C-9.22576275 -1.67285226 -5.00761863 -1.49494842 0 0 Z " fill="#070707" transform="translate(228,482)"/>
<path d="M0 0 C4.30543683 2.23551528 7.60229159 4.7579005 10 9 C10.7872293 13.11259447 11.11644755 17.06622858 8.96484375 20.79296875 C6.86563365 22.88048409 4.74107239 23.91677797 1.80859375 24.24609375 C-3.97178563 23.9428928 -7.05082654 22.13722934 -11 18 C-13.41996265 15.01537939 -14.22111523 12.70678303 -14.4375 8.9375 C-14 5 -14 5 -12.125 2.5625 C-8.22856033 -0.30252917 -4.74362759 -0.63720371 0 0 Z " fill="#060606" transform="translate(318,402)"/>
<path d="M0 0 C4.84053156 1.14982726 8.92515523 4.2726251 11.55078125 8.48046875 C12.96051557 12.13890122 12.91067203 15.7085231 12.3515625 19.55859375 C10.28620074 22.86317256 8.81483299 23.41604898 5.1015625 24.55859375 C-0.43438812 24.55859375 -4.26184322 22.84142307 -8.265625 19.01171875 C-10.72384798 15.98407689 -11.99288409 13.34657552 -12.2734375 9.43359375 C-11.6484375 5.55859375 -11.6484375 5.55859375 -9.7109375 2.55859375 C-6.18405527 0.25532372 -4.14628284 -0.22880825 0 0 Z " fill="#060606" transform="translate(175.6484375,483.44140625)"/>
<path d="M0 0 C1.38594529 0.00031696 2.77191535 0.01163319 4.15771484 0.03173828 C4.88735443 0.03456818 5.61699402 0.03739807 6.3687439 0.04031372 C8.70221262 0.05152076 11.03529937 0.07662568 13.36865234 0.10205078 C14.94937597 0.11207993 16.53010561 0.1212059 18.11083984 0.12939453 C21.98859149 0.15146173 25.86605712 0.18599463 29.74365234 0.22705078 C30.73365234 4.18705078 31.72365234 8.14705078 32.74365234 12.22705078 C27.83241645 12.32603693 22.92176296 12.39857325 18.00976562 12.44677734 C16.33941532 12.46687471 14.66913522 12.49415762 12.99902344 12.52880859 C10.59601514 12.57741197 8.19393801 12.60003734 5.79052734 12.61767578 C5.04559021 12.63832092 4.30065308 12.65896606 3.53314209 12.68023682 C0.03742802 12.68174467 -1.90618641 12.48214686 -4.76708984 10.39794922 C-6.25634766 8.22705078 -6.25634766 8.22705078 -6.13134766 5.10205078 C-4.90355434 1.06787274 -4.26050613 0.29706633 0 0 Z " fill="#090909" transform="translate(559.25634765625,146.77294921875)"/>
<path d="M0 0 C1.12347839 0.00607269 1.12347839 0.00607269 2.26965332 0.01226807 C3.03894165 0.01035461 3.80822998 0.00844116 4.60083008 0.00646973 C6.22823412 0.00510799 7.85564902 0.00880368 9.48303223 0.01715088 C11.97855963 0.02785086 14.47336714 0.01725555 16.96887207 0.00445557 C18.54830075 0.00577716 20.12772898 0.00833956 21.70715332 0.01226807 C22.45613892 0.0082196 23.20512451 0.00417114 23.97680664 0 C29.25848089 0.04797064 29.25848089 0.04797064 31.48840332 2.27789307 C31.80090332 5.77789307 31.80090332 5.77789307 31.48840332 9.27789307 C27.82409251 11.72076694 25.06487899 11.56727571 20.82824707 11.54351807 C19.70973106 11.54638824 19.70973106 11.54638824 18.56861877 11.54931641 C16.99426943 11.55067608 15.41990879 11.5469948 13.84558105 11.53863525 C11.43134511 11.52791723 9.01785072 11.53854524 6.6036377 11.55133057 C5.07433917 11.55000923 3.54504111 11.54744737 2.01574707 11.54351807 C1.29177231 11.54756653 0.56779755 11.55161499 -0.17811584 11.55578613 C-5.28166273 11.50782702 -5.28166273 11.50782702 -7.51159668 9.27789307 C-7.76159668 5.77789307 -7.76159668 5.77789307 -7.51159668 2.27789307 C-4.99454863 -0.23915498 -3.43486769 0.03119707 0 0 Z " fill="#030303" transform="translate(69.5115966796875,487.72210693359375)"/>
<path d="M0 0 C4.87757399 2.31590238 9.32939419 5.21516459 12 10 C12.64081402 13.68283921 12.41804283 16.91308865 11.0625 20.4375 C7.67147274 23.00646005 4.18217587 23.27881172 0 23 C-4.96830043 21.50162368 -8.34632591 18.16442767 -11.109375 13.86328125 C-12.65307225 10.63370411 -12.70872121 8.47917683 -12 5 C-8.30661704 0.86692859 -5.55301869 -1.11060374 0 0 Z " fill="#070707" transform="translate(660,156)"/>
<path d="M0 0 C0.7940625 0.07863281 1.588125 0.15726562 2.40625 0.23828125 C4.5 0.6875 4.5 0.6875 6.5 2.6875 C7.46428435 7.20171613 7.30759494 11.18346786 5.109375 15.27734375 C1.96750219 19.49155141 -0.39479511 22.07789718 -5.5 23.6875 C-9.04782834 24.12192796 -10.80056064 24.11084488 -13.875 22.25 C-15.88683367 19.07749306 -16.36074916 16.9456426 -16.23046875 13.2109375 C-14.71683914 7.9820352 -10.43670022 4.26890237 -6.5 0.6875 C-4.02756353 -0.54871824 -2.72682061 -0.29658601 0 0 Z " fill="#070707" transform="translate(193.5,396.3125)"/>
<path d="M0 0 C2.9375 2 2.9375 2 5 5 C5.11081626 11.8706083 2.87821387 16.81340607 -1.75 21.9375 C-5.18086864 23.55763241 -8.28836612 23.78179609 -12 23 C-14.5625 21.0625 -14.5625 21.0625 -16 18 C-16.4267517 12.0473609 -14.90618486 7.55721567 -11 3 C-7.36522412 0.1304401 -4.60449901 -0.7674165 0 0 Z " fill="#090909" transform="translate(785,177)"/>
<path d="M0 0 C1.9375 1.0625 1.9375 1.0625 3 3 C3.5378789 7.6872304 3.52264606 9.97480966 1.375 14.1875 C-4.82062548 21.52442492 -4.82062548 21.52442492 -9.05859375 22.44921875 C-12.2343786 22.61820547 -14.42706859 22.42969856 -17 20.5 C-18.46347118 16.84132205 -18.94600915 13.8040227 -18 10 C-13.43553414 2.18054618 -9.33040566 -2.20536861 0 0 Z " fill="#080808" transform="translate(776,138)"/>
<path d="M0 0 C2.07360121 1.59136837 2.88865127 2.47335062 3.43359375 5.05078125 C3.44548929 11.93829753 1.5326428 15.3989074 -3.3125 20.375 C-6.83405736 22.50431375 -8.95104818 22.58893845 -13 22 C-15.4375 20.5625 -15.4375 20.5625 -17 18 C-17.85620221 13.34826223 -17.45999522 9.93768256 -15.375 5.6875 C-10.58711337 0.26962829 -7.2441602 -2.05023402 0 0 Z " fill="#060606" transform="translate(748,210)"/>
<path d="M0 0 C2.75 1.6875 2.75 1.6875 4.75 4.6875 C5.25 8.0625 5.25 8.0625 4.75 11.6875 C2.18789026 14.76831907 -1.17143853 17.39650139 -5.203125 17.9609375 C-9.34024187 18.14387124 -12.36347524 18.12705273 -15.75 15.5625 C-18.53335167 12.36164558 -19.33788991 10.9062159 -19.25 6.6875 C-17.82805265 2.8660165 -16.53778226 1.84496576 -12.9375 -0.125 C-7.88870636 -1.7508827 -4.94258222 -1.99604282 0 0 Z " fill="#090909" transform="translate(662.25,90.3125)"/>
<path d="M0 0 C3.14194806 1.65989709 5.31255973 3.03133416 7.375 5.9375 C8.19174939 8.63277299 8.5466652 10.19834084 8 13 C4.04096444 16.87105699 1.22552243 18.79004505 -4.3125 19.3125 C-9.48835112 18.87386855 -12.39607374 16.60392626 -16 13 C-15.88562797 5.90893397 -15.88562797 5.90893397 -12.625 2.5625 C-8.30142939 -0.01105394 -4.98832964 -0.4227398 0 0 Z " fill="#090909" transform="translate(740,87)"/>
<path d="M0 0 C3.24065665 0.11805671 4.28081016 0.49387489 7.1875 2.25 C10.10657006 6.90226792 10.0797191 11.08418537 9.1875 16.4375 C7.38631522 19.43947464 6.28417268 20.88916366 3.1875 22.4375 C-1.04406979 22.91654564 -3.11232545 22.90935676 -6.6875 20.5 C-9.44382358 16.52765131 -10.27065388 13.25660009 -9.8125 8.4375 C-7.27537505 3.62571129 -5.52948932 0.63453156 0 0 Z " fill="#060606" transform="translate(729.8125,168.5625)"/>
<path d="M0 0 C5.5 3 5.5 3 7 6 C7.4375 9.3125 7.4375 9.3125 7 13 C4.79709525 15.66382021 2.09091704 17.45454148 -1 19 C-5.59030461 19.0450914 -9.11392322 18.57225792 -13 16.0625 C-15.3770035 13.61121514 -15.91293909 12.55967726 -16.4375 9.1875 C-15.95801901 5.69413848 -15.67993842 5.32593995 -13.125 3.1875 C-8.68302447 0.07811713 -5.40532077 -0.75213183 0 0 Z " fill="#080808" transform="translate(700,109)"/>
<path d="M0 0 C3.03523922 1.31739828 3.85737025 2.27828113 6 5 C6.6875 8.5 6.6875 8.5 6 12 C3.98211071 14.99428733 2.40933537 16.57324798 -1.08984375 17.6328125 C-6.58847115 18.51635263 -10.18674194 17.75043318 -15 15 C-17.5099972 11.23500419 -17.61476744 9.45706394 -17 5 C-12.43335996 -0.80086708 -7.08862687 -1.29170534 0 0 Z " fill="#060606" transform="translate(701,66)"/>
</svg>
